<?xml version="1.0" encoding="UTF-8"?>
<svg width="39px" height="55px" viewBox="0 0 39 55" version="1.1" xmlns="http://www.w3.org/2000/svg" xmlns:xlink="../../../../../www.w3.org/1999/xlink">
    <!-- Generator: Sketch 55.2 (78181) - https://sketchapp.com -->
    <title>Group 11</title>
    <desc>Created with Sketch.</desc>
    <defs>
        <path d="M6.09375,0 C2.72878125,0 0,2.7975 0,6.25 L0,6.25 L0,48.75 C0,52.2025 2.72878125,55 6.09375,55 L6.09375,55 L32.90625,55 C36.2712187,55 39,52.2025 39,48.75 L39,48.75 L39,16.2275 C39,15.895 38.8708125,15.5775 38.6429063,15.3425 L38.6429063,15.3425 L24.024,0.36625 C23.7960938,0.13125 23.48775,0 23.1635625,0 L23.1635625,0 L6.09375,0 Z M2.4375,48.75 L2.4375,6.25 C2.4375,4.17875 4.0730625,2.5 6.09375,2.5 L6.09375,2.5 L21.9375,2.5 L21.9375,11.25 C21.9375,14.7025 24.6662813,17.5 28.03125,17.5 L28.03125,17.5 L36.5625,17.5 L36.5625,48.75 C36.5625,50.82125 34.9257187,52.5 32.90625,52.5 L32.90625,52.5 L6.09375,52.5 C4.0730625,52.5 2.4375,50.82125 2.4375,48.75 L2.4375,48.75 Z M24.375,11.25 L24.375,4.25875 L34.8586875,15 L28.03125,15 C26.0105625,15 24.375,13.32125 24.375,11.25 L24.375,11.25 Z M26.076375,29.97875 L26.076375,40.02125 L28.1177812,40.02125 L28.1177812,36.05 L31.4400938,36.05 L31.4400938,34.3125 L28.1177812,34.3125 L28.1177812,31.72375 L31.6875,31.72375 L31.6875,29.97875 L26.076375,29.97875 Z M15.9241875,29.97875 L15.9241875,40.02125 L18.695625,40.02125 C20.4274687,40.02125 21.7534687,39.58125 22.6699688,38.7025 L22.6699688,38.7025 C23.5876875,37.8225 24.0471562,36.55625 24.0471562,34.90375 L24.0471562,34.90375 C24.0471562,33.35125 23.60475,32.1425 22.7199375,31.27875 L22.7199375,31.27875 C21.8375625,30.41375 20.5956563,29.97875 18.997875,29.97875 L18.997875,29.97875 L15.9241875,29.97875 Z M18.0009375,31.72375 L19.105125,31.72375 C20.9625,31.72375 21.8911875,32.8025 21.8911875,34.9575 L21.8911875,34.9575 C21.8911875,37.16125 20.889375,38.26375 18.890625,38.26375 L18.890625,38.26375 L18.0009375,38.26375 L18.0009375,31.72375 Z M7.3125,29.97875 L7.3125,40.02125 L9.38803125,40.02125 L9.38803125,36.44875 L10.2789375,36.44875 C11.4928125,36.44875 12.43125,36.1625 13.089375,35.59 L13.089375,35.59 C13.7475,35.01875 14.0753437,34.1925 14.0753437,33.1125 L14.0753437,33.1125 C14.0753437,32.07125 13.767,31.29125 13.147875,30.765 L13.147875,30.765 C12.5299687,30.2425 11.626875,29.97875 10.4398125,29.97875 L10.4398125,29.97875 L7.3125,29.97875 Z M9.38803125,31.72375 L10.3337813,31.72375 C10.8992812,31.72375 11.3160938,31.8425 11.5817812,32.08125 L11.5817812,32.08125 C11.8474687,32.31875 11.9803125,32.6875 11.9803125,33.1875 L11.9803125,33.1875 C11.9803125,33.68125 11.821875,34.0575 11.5037813,34.31625 L11.5037813,34.31625 C11.1869063,34.575 10.710375,34.705 10.07175,34.705 L10.07175,34.705 L9.38803125,34.705 L9.38803125,31.72375 Z" id="path-1"></path>
    </defs>
    <g id="Desktop" stroke="none" stroke-width="1" fill="none" fill-rule="evenodd">
        <g id="OPA-Santander-" transform="translate(-376.000000, -694.000000)">
            <g id="Group-11" transform="translate(376.000000, 694.000000)">
                <g id="Group-4-Copy-2">
                    <mask id="mask-2" fill="white">
                        <use xlink:href="#path-1"></use>
                    </mask>
                    <g id="Clip-2"></g>
                    <polygon id="Fill-1" fill="#000000" mask="url(#mask-2)" points="-6.09375 61.25 45.09375 61.25 45.09375 -6.25 -6.09375 -6.25"></polygon>
                    <polygon id="Fill-3" fill="#FFFFFF" mask="url(#mask-2)" points="-15.84375 63.75 54.84375 63.75 54.84375 -8.75 -15.84375 -8.75"></polygon>
                </g>
            </g>
        </g>
    </g>
</svg>