<?xml version="1.0" encoding="UTF-8"?>
<svg width="90px" height="65px" viewBox="0 0 90 65" version="1.1" xmlns="http://www.w3.org/2000/svg" xmlns:xlink="../../../../../../www.w3.org/1999/xlink">
    <!-- Generator: Sketch 52.3 (67297) - http://www.bohemiancoding.com/sketch -->
    <title>Group 4</title>
    <desc>Created with Sketch.</desc>
    <defs>
        <path d="M80.5990916,0 L9.38250601,0.0771899043 C4.19523367,0.0853151574 -0.00612964982,4.26778918 6.7133631e-06,9.42123095 L0.0593248908,55.6823594 C0.0654612539,60.8317385 4.27296094,65.0060873 9.45614237,64.9999933 L80.6154552,64.9532731 C85.8027276,64.9471792 90,60.7707991 90,55.6193887 L90,9.32779054 C90,4.1784114 85.7925003,0 80.6113643,0 C80.6072734,0 80.6031825,0 80.5990916,0 Z M4.15023368,55.6782967 L4.0909155,9.41716832 C4.08682459,6.50426509 6.46159714,4.14591038 9.38659692,4.14184776 L80.6031825,4.06262654 C83.5302278,4.05856391 85.9090912,6.41691862 85.9090912,9.32779054 L85.9090912,55.6193887 C85.9090912,58.5302606 83.5384096,60.886584 80.6134098,60.8906466 L9.45205146,60.9353355 C9.45000601,60.9353355 9.44796055,60.9353355 9.44386965,60.9353355 C6.52500623,60.9353355 4.15432459,58.5810434 4.15023368,55.6782967 Z M42.954549,16.2484748 L42.954549,19.8053044 C39.4200038,20.4573559 36.5747767,23.1447834 36.5747767,26.8742746 C36.5747767,29.4824808 38.331822,31.3248819 41.1443218,32.803678 C42.1793217,33.3460386 44.6686397,34.3657579 44.4456852,34.2601296 C44.4252307,34.2520044 46.6179578,35.1498448 47.325685,35.5317317 C48.8188667,36.3320692 49.5306848,37.154751 49.5306848,38.0789986 C49.5306848,40.1062492 47.8247759,41.2864422 44.3475034,41.2864422 C43.9772762,41.2864422 43.5027307,41.2234715 42.9586399,41.103624 C42.4002308,40.9776826 41.78864,40.798927 41.1565946,40.5775139 C40.3486401,40.29313 39.677731,40.0107775 39.3013674,39.8320219 C38.2786402,39.352632 37.0595494,39.7832704 36.5768222,40.798927 C36.090004,41.810521 36.5256858,43.0211838 37.5463675,43.5046363 C38.043413,43.7382373 38.8370493,44.073404 39.7963674,44.4085707 C40.5736401,44.6787354 41.3325036,44.9042112 42.0647763,45.0667162 C42.369549,45.1357809 42.6661399,45.1906263 42.954549,45.2353152 L42.954549,48.7515185 C42.954549,49.8707721 43.8688671,50.7828318 45.0000034,50.7828318 C46.1290942,50.7828318 47.0454577,49.8707721 47.0454577,48.7515185 L47.0454577,45.1154677 C51.0381847,44.3760697 53.6236391,41.9222433 53.6236391,38.0789986 C53.6236391,35.3306317 51.9463665,33.3947902 49.2729576,31.9586517 C48.3361395,31.454886 46.0288669,30.508294 46.2334124,30.6078284 C46.2804578,30.6301728 43.8811398,29.6449859 43.0588671,29.2123161 C41.4552309,28.3713524 40.6656855,27.5425766 40.6656855,26.8742746 C40.6656855,25.0704684 42.4350035,23.7135511 44.6440943,23.7135511 C46.0043215,23.7135511 47.1272759,23.9024633 48.0272759,24.2091916 C48.5079576,24.3737279 48.7759122,24.5118572 48.8413667,24.5585774 C49.7659121,25.2025037 51.0422756,24.9810906 51.6906847,24.062937 C52.3390937,23.1447834 52.1161392,21.8772439 51.1915938,21.2333176 C50.8213666,20.9753408 50.2097757,20.658456 49.3568212,20.3679782 C48.6552304,20.1262519 47.8840941,19.9414024 47.0454577,19.8195236 L47.0454577,16.2484748 C47.0454577,15.1271899 46.1290942,14.2191929 45.0000034,14.2191929 C43.8688671,14.2191929 42.954549,15.1271899 42.954549,16.2484748 Z" id="path-1"></path>
    </defs>
    <g id="Desktop-_V2" stroke="none" stroke-width="1" fill="none" fill-rule="evenodd">
        <g id="2-Créditos-producto-24x7-nomina" transform="translate(-414.000000, -1271.000000)">
            <g id="Group-4" transform="translate(414.000000, 1271.000000)">
                <mask id="mask-2" fill="white">
                    <use xlink:href="#path-1"></use>
                </mask>
                <g id="Clip-2"></g>
                <polygon id="Fill-1" fill="#000000" mask="url(#mask-2)" points="-9 76 101 76 101 -10 -9 -10"></polygon>
                <polygon id="Fill-3" fill="#000000" mask="url(#mask-2)" points="-14 91 106 91 106 -28 -14 -28"></polygon>
            </g>
        </g>
    </g>
</svg>