<svg width="106" height="96" viewBox="0 0 106 96" fill="none" xmlns="http://www.w3.org/2000/svg">
<path fill-rule="evenodd" clip-rule="evenodd" d="M8.11079 48.2354C8.72208 46.6287 7.4995 8.26402 8.11079 5.83208C8.72208 3.40013 35.347 -1.09153 60.1466 11.2901C84.9462 23.6717 82.1381 34.0769 91.1053 44.1622C100.072 54.2474 97.9239 65.7816 97.9239 65.7816C97.9239 65.7816 97.1316 78.3679 95.17 84.199C93.2084 90.0301 4.64166 86.958 3.19264 85.432C1.74361 83.906 2.86232 54.9985 3.19264 52.4202C3.52295 49.842 7.4995 49.842 8.11079 48.2354Z" stroke="#4A4A4A" stroke-width="4.39"/>
<path d="M30.7766 3C30.7766 3 29.743 29.6601 30.7766 32.5124C31.8102 35.3647 90.19 42.5641 90.19 42.5641" stroke="#4A4A4A" stroke-width="4.39"/>
<rect x="4.195" y="66.5939" width="26.9578" height="26.9578" rx="13.4789" fill="white" stroke="#4A4A4A" stroke-width="4.39"/>
<rect x="76.8473" y="66.5939" width="26.9578" height="26.9578" rx="13.4789" fill="white" stroke="#4A4A4A" stroke-width="4.39"/>
</svg>
