<svg xmlns="http://www.w3.org/2000/svg" viewBox="0 0 79.39 54.48"><defs><style>.cls-1{fill:#ff2c3b;}.cls-1,.cls-2{fill-rule:evenodd;}.cls-2{fill:#1ab5bd;}</style></defs><g id="Capa_2" data-name="Capa 2"><g id="Capa_1-2" data-name="Capa 1"><g id="Group"><path class="cls-1" d="M72.48,4.23q-8-1.92-18.47,11.4Q49,6.27,44.61,3C40.25-.28,32.22-3.78,29.35,9.65a16,16,0,0,0,.1,6.71c1,4.67-3.81,4.26.7,10.22-4.28-5.93.39-5.21-.63-9.89a28.05,28.05,0,0,1,5.19-6.06c4.21-3.33,12-6.89,14.73,6.77Q51.17,26,42.78,38.45q3.31,3.73,7.45,7.76A102.71,102.71,0,0,0,72.48,28.72C82.8,18.11,80.51,6.15,72.48,4.23Z"/><path id="Combined-Shape" class="cls-2" d="M6.87,12q8-2,18.35,11.54a63,63,0,0,1,4.3-6.82c1.41,6.25,5.77,13.38,13.24,21.89A119.47,119.47,0,0,1,29,54.48,102.18,102.18,0,0,1,6.87,36.77C-3.39,26-1.11,13.91,6.87,12Z"/></g></g></g></svg>