<?xml version="1.0" encoding="UTF-8"?>
<svg width="66px" height="48px" viewBox="0 0 66 48" version="1.1" xmlns="http://www.w3.org/2000/svg" xmlns:xlink="../../../../../../www.w3.org/1999/xlink">
    <!-- Generator: Sketch 52.3 (67297) - http://www.bohemiancoding.com/sketch -->
    <title>Group 4</title>
    <desc>Created with Sketch.</desc>
    <defs>
        <path d="M59.1075005,0 L6.88050441,0.0570017755 C3.07650469,0.0630019624 -0.00449507653,3.15159816 4.92313294e-06,6.9572167 L0.0450049198,41.1207808 C0.0480049196,44.9218992 3.13350469,48.0044952 6.93450441,47.9999951 L59.1195005,47.965494 C62.9205002,47.9609939 66,44.8768978 66,41.0727793 L66,6.88821455 C66,3.08559611 62.9145002,0 59.1150005,0 C59.1120005,0 59.1090005,0 59.1075005,0 Z M3.0435047,41.1162807 L3.0000047,6.95421661 C2.9985047,4.80314961 4.73700457,3.06159536 6.88350441,3.05859527 L59.1090005,3.00009345 C61.2555004,2.99709335 63.0000002,4.7386476 63.0000002,6.88821455 L63.0000002,41.0727793 C63.0000002,43.2223463 61.2615004,44.9624005 59.1165005,44.9654006 L6.93150441,44.9984016 C6.93150441,44.9984016 6.93000441,44.9984016 6.92700441,44.9984016 C4.78500457,44.9984016 3.0465047,43.2598474 3.0435047,41.1162807 Z M21.4845033,9.41579328 L15.8040037,14.6989578 C14.7375038,15.6829885 14.7375038,17.33754 15.8040037,18.330571 L21.4845033,23.6122355 C22.0905033,24.1777531 23.0385032,24.141752 23.6040032,23.5357331 C24.1695031,22.9297142 24.1335031,21.9801846 23.5260032,21.4161671 L19.8690034,18.0140611 L40.5000019,18.0140611 C41.3295018,18.0140611 42.0000018,17.3420402 42.0000018,16.5140144 C42.0000018,15.6859886 41.3295018,15.0139676 40.5000019,15.0139676 L19.8690034,15.0139676 L23.5260032,11.6103616 C24.1335031,11.0478441 24.1695031,10.0983145 23.6040032,9.49079561 C23.3085032,9.17428576 22.9065032,9.0152808 22.5045032,9.0152808 C22.1385033,9.0152808 21.7725033,9.14728491 21.4845033,9.41579328 Z M42.4200018,24.4522616 C41.8560018,25.0597805 41.8905018,26.0108102 42.4965018,26.5733277 L46.1535015,29.9754337 L25.500003,29.9754337 C24.6720031,29.9754337 24.0000031,30.6459545 24.0000031,31.4754804 C24.0000031,32.3035062 24.6720031,32.9755271 25.500003,32.9755271 L46.1535015,32.9755271 L42.4965018,36.3776331 C41.8905018,36.9401506 41.8560018,37.8896802 42.4200018,38.4971991 C42.9840017,39.103218 43.9335016,39.137719 44.5410016,38.5737015 L50.2185012,33.2905369 C51.2850011,32.3065063 51.2850011,30.6519547 50.2185012,29.6589238 L44.5410016,24.3772593 C44.2500016,24.1087509 43.8825016,23.9752468 43.5165017,23.9752468 C43.1160017,23.9752468 42.7155017,24.1357518 42.4200018,24.4522616 Z" id="path-1"></path>
    </defs>
    <g id="Desktop-_V2" stroke="none" stroke-width="1" fill="none" fill-rule="evenodd">
        <g id="7-Créditos-linea-express" transform="translate(-831.000000, -1104.000000)">
            <g id="Group-4" transform="translate(831.000000, 1104.000000)">
                <mask id="mask-2" fill="white">
                    <use xlink:href="#path-1"></use>
                </mask>
                <g id="Clip-2"></g>
                <polygon id="Fill-1" fill="#000000" mask="url(#mask-2)" points="-7 55 74 55 74 -7 -7 -7"></polygon>
                <polygon id="Fill-3" fill="#000000" mask="url(#mask-2)" points="-10 67 77 67 77 -19 -10 -19"></polygon>
            </g>
        </g>
    </g>
</svg>