<?xml version="1.0" encoding="UTF-8"?>
<svg width="66px" height="66px" viewBox="0 0 66 66" version="1.1" xmlns="http://www.w3.org/2000/svg" xmlns:xlink="../../../../../../www.w3.org/1999/xlink">
    <!-- Generator: Sketch 52.3 (67297) - http://www.bohemiancoding.com/sketch -->
    <title>Group 4</title>
    <desc>Created with Sketch.</desc>
    <defs>
        <path d="M0,33 C0,51.225 14.7735,66 33,66 C51.225,66 66,51.225 66,33 C66,14.775 51.225,0 33,0 C14.7735,0 0,14.775 0,33 Z M3,33 C3,16.431 16.431,3 33,3 C40.7445,3 47.8035,5.934 53.1255,10.752 L10.752,53.1255 C5.9355,47.8035 3,40.7445 3,33 Z M12.8745,55.248 L55.2465,12.8745 C60.0645,18.1965 63,25.2555 63,33 C63,49.569 49.569,63 33,63 C25.2555,63 18.1965,60.066 12.8745,55.248 Z" id="path-1"></path>
    </defs>
    <g id="Desktop-_V2" stroke="none" stroke-width="1" fill="none" fill-rule="evenodd">
        <g id="4-Créditos-24x7-efectivo-" transform="translate(-852.000000, -1270.000000)">
            <g id="Group-4" transform="translate(852.000000, 1270.000000)">
                <mask id="mask-2" fill="white">
                    <use xlink:href="#path-1"></use>
                </mask>
                <g id="Clip-2"></g>
                <polygon id="Fill-1" fill="#000000" mask="url(#mask-2)" points="-7 74 74 74 74 -7 -7 -7"></polygon>
                <polygon id="Fill-3" fill="#000000" mask="url(#mask-2)" points="-10 77 77 77 77 -10 -10 -10"></polygon>
            </g>
        </g>
    </g>
</svg>