<?xml version="1.0" encoding="UTF-8"?>
<svg width="78px" height="78px" viewBox="0 0 78 78" version="1.1" xmlns="http://www.w3.org/2000/svg" xmlns:xlink="../../../../../../www.w3.org/1999/xlink">
    <!-- Generator: Sketch 52.3 (67297) - http://www.bohemiancoding.com/sketch -->
    <title>Group 4</title>
    <desc>Created with Sketch.</desc>
    <defs>
        <path d="M37.0313273,1.94960259 L37.0313273,4.12145987 C34.5526915,4.77067753 32.6142461,6.81970985 32.6142461,9.59594393 C32.6142461,11.6878675 33.9481461,13.142271 36.0387029,14.2866878 C36.7836588,14.6941547 38.5212391,15.4369533 38.3418256,15.345322 C38.3515764,15.3511708 39.853189,15.99259 40.3114734,16.2499376 C41.2026902,16.7509854 41.5829687,17.2071924 41.5829687,17.6750971 C41.5829687,18.8448586 40.6664,19.5038243 38.5290397,19.5038243 C38.3223242,19.5038243 38.0356527,19.4628826 37.6982774,19.3868481 C37.3375003,19.3030152 36.9377203,19.1801903 36.5164887,19.0281213 C35.9801985,18.8312114 35.533615,18.6362511 35.2878966,18.5134262 C34.3225742,18.0396727 33.1524864,18.4393413 32.6786009,19.4082938 C32.2047154,20.373347 32.6025452,21.541159 33.5698177,22.0149124 C33.9305948,22.1923263 34.4980874,22.4418754 35.1825887,22.6894749 C35.7403305,22.8922336 36.2883216,23.061849 36.8187614,23.184674 C36.8909168,23.2002708 36.9611221,23.2158676 37.0313273,23.2314644 L37.0313273,25.3545816 C37.0313273,26.4288127 37.9030427,27.3041842 38.9814736,27.3041842 C40.0579543,27.3041842 40.9316199,26.4288127 40.9316199,25.3545816 L40.9316199,23.1281355 C43.6871765,22.4555226 45.4832612,20.5546601 45.4832612,17.6750971 C45.4832612,15.4954414 44.2098157,13.9650033 42.2187164,12.8498307 C41.5381154,12.4696581 39.9233943,11.7775492 40.093057,11.8633317 C40.0833062,11.8613821 38.4490837,11.1595252 37.9108433,10.8670848 C36.9455209,10.3367929 36.5164887,9.86498909 36.5164887,9.59594393 C36.5164887,8.57825138 37.4857114,7.80035995 38.733805,7.80035995 C39.679626,7.80035995 40.4148311,7.97582418 41.0115759,8.26436537 C41.2767958,8.39108954 41.0817811,8.26631497 41.7526314,8.72252198 C42.6418981,9.33274759 43.8548891,9.10659369 44.4652849,8.21952451 C45.0717804,7.33050573 44.8455634,6.11785292 43.9582469,5.50957691 C43.0514289,4.88765369 43.240593,5.01047865 42.7121034,4.75703031 C42.1680126,4.49188436 41.5751681,4.28327688 40.9316199,4.13510709 L40.9316199,1.94960259 C40.9316199,0.871472357 40.0579543,0 38.9814736,0 C37.9030427,0 37.0313273,0.871472357 37.0313273,1.94960259 Z M28.9499212,32.9931246 L17.6624747,40.0643332 C17.3368003,40.2378478 17.0345276,40.4367073 16.7517564,40.6531132 L4.76615746,40.6531132 C2.13931045,40.6531132 0,42.7606335 0,45.3750506 L0,62.6251343 C0,65.2395514 2.13931045,67.3451222 4.76615746,67.3451222 L11.2074906,67.3470718 L18.8969173,67.3470718 C19.1309348,67.3470718 19.3513013,67.4445519 19.7023277,67.79743 L29.2580444,75.6718748 C32.2281171,78.5007482 36.8324124,78.7853902 40.1437608,76.3405885 L52.546691,67.0877746 L59.986499,67.0877746 L59.986499,69.4097513 C59.986499,70.4859319 60.8601645,71.3593539 61.9366452,71.3593539 L72.1476111,71.3593539 C75.3790034,71.3593539 78,68.7410376 78,65.5105461 L78,41.5674768 C78,38.3350357 75.3790034,35.7167194 72.1476111,35.7167194 L61.9366452,35.7167194 C60.8601645,35.7167194 59.986499,36.5881918 59.986499,37.666322 L59.986499,39.8303809 L57.4883616,39.8303809 L38.293072,31.8058166 C37.2867965,31.5679651 36.2493187,31.4431905 35.1962397,31.4431905 C33.0413281,31.4431905 30.960522,31.9539864 28.9499212,32.9931246 Z M18.3645273,47.3441492 C17.5825187,45.9833266 18.0876066,44.2676763 19.6243218,43.4312968 L30.8747156,36.3795843 C32.1930145,35.7050218 33.6653749,35.3443453 35.1962397,35.3443453 C35.947046,35.3443453 36.6842013,35.4320774 37.0917819,35.5003135 L56.3416756,43.577517 L57.0963822,43.7276364 L59.986499,43.7276364 L59.986499,63.1885695 L52.1079081,63.1885695 L34.1236593,44.9578357 C32.5284396,43.5697186 30.1882641,43.3942544 28.3629272,44.5484191 L22.4715354,48.4573723 C22.0035003,48.7108206 21.4945121,48.831696 20.9952746,48.831696 C19.9343951,48.831696 18.9086181,48.2916561 18.3645273,47.3441492 Z M63.8867915,39.6178742 L72.1476111,39.6178742 C73.226042,39.6178742 74.0997075,40.4893465 74.0997075,41.5674768 L74.0997075,65.5105461 C74.0997075,66.5886764 73.226042,67.4601487 72.1476111,67.4601487 L63.8867915,67.4601487 L63.8867915,39.6178742 Z M4.76615746,63.445917 C4.28057104,63.445917 3.90029252,63.0735429 3.90029252,62.6251343 L3.90029252,45.3750506 C3.90029252,44.926642 4.28057104,44.5523183 4.76615746,44.5523183 L14.2516689,44.5523183 C13.9084431,46.1061516 14.1210091,47.7847594 14.9810236,49.2859534 C16.8414631,52.5300921 21.0225767,53.6823072 24.480186,51.7970415 L30.4807861,47.8218019 C30.8162112,47.6092952 31.2705953,47.6424384 31.4558592,47.796457 L48.5917944,65.1752145 L37.8172363,73.2095268 C36.0387029,74.5235589 33.546416,74.3695403 31.8458884,72.7552694 L22.3798785,64.976355 C21.4867115,63.9996041 20.2210666,63.4478666 18.8969173,63.4478666 L11.2074906,63.4478666 L4.76615746,63.445917 Z" id="path-1"></path>
    </defs>
    <g id="Desktop-_V2" stroke="none" stroke-width="1" fill="none" fill-rule="evenodd">
        <g id="5-Créditos-personal-select-efectivo" transform="translate(-294.000000, -1265.000000)">
            <g id="Group-4" transform="translate(294.000000, 1265.000000)">
                <mask id="mask-2" fill="white">
                    <use xlink:href="#path-1"></use>
                </mask>
                <g id="Clip-2"></g>
                <polygon id="Fill-1" fill="#000000" mask="url(#mask-2)" points="-10 88 88 88 88 -10 -10 -10"></polygon>
                <polygon id="Fill-3" fill="#000000" mask="url(#mask-2)" points="-17 96 96 96 96 -17 -17 -17"></polygon>
            </g>
        </g>
    </g>
</svg>