<?xml version="1.0" encoding="UTF-8"?>
<svg width="59px" height="59px" viewBox="0 0 59 59" version="1.1" xmlns="http://www.w3.org/2000/svg" xmlns:xlink="../../../../../../www.w3.org/1999/xlink">
    <!-- Generator: Sketch 52.3 (67297) - http://www.bohemiancoding.com/sketch -->
    <title>Group 4</title>
    <desc>Created with Sketch.</desc>
    <defs>
        <path d="M28.0253035,1.48033139 L28.0253035,4.25170104 C25.5282329,4.72789156 23.5193669,6.65039985 23.5193669,9.31677097 C23.5193669,11.191956 24.7686397,12.5140502 26.7627563,13.5729086 C27.4958007,13.9603679 29.2524523,14.6894422 29.0961088,14.611063 C29.1138081,14.6184573 30.6359444,15.2484485 31.1285738,15.5161208 C32.1743051,16.0840002 32.6698844,16.6637104 32.6698844,17.3055324 C32.6698844,18.7341039 31.4796092,19.5637402 29.0385862,19.5637402 C28.778997,19.5637402 28.4486109,19.5193746 28.0666018,19.4321223 C27.6713183,19.34487 27.2435862,19.2162098 26.7966799,19.0594515 C26.2273537,18.8583275 25.7553734,18.6557247 25.4884096,18.5300223 C24.7509404,18.1795342 23.8733521,18.4945298 23.5237917,19.2324772 C23.1742313,19.9704246 23.4869183,20.8532996 24.2243874,21.2008299 C24.5754228,21.3694191 25.1373743,21.6089932 25.8158459,21.8485674 C26.364523,22.042297 26.9028755,22.2020131 27.4220538,22.3203213 C27.6285451,22.3661657 27.8291367,22.4046159 28.0253035,22.4356718 L28.0253035,25.0059175 C28.0253035,25.823723 28.6860759,26.4847701 29.5002419,26.4847701 C30.3144079,26.4847701 30.9751802,25.823723 30.9751802,25.0059175 L30.9751802,22.3484195 C33.7937874,21.8130749 35.6197611,20.0576769 35.6197611,17.3055324 C35.6197611,15.3327431 34.4294859,13.9455794 32.5312402,12.9148192 C31.8689929,12.555458 30.239186,11.8796224 30.3852049,11.9506073 C30.4161786,11.9653959 28.7214745,11.2658986 28.1432986,10.9582973 C27.0193956,10.3623197 26.4692436,9.77817296 26.4692436,9.31677097 C26.4692436,8.05235206 27.703767,7.09405561 29.2480274,7.09405561 C30.2052624,7.09405561 30.9958294,7.22715234 31.6285779,7.44602252 C31.9633889,7.56137301 32.152181,7.66045613 32.1949543,7.69151204 C32.8631013,8.16030829 33.7819879,7.99911336 34.2510183,7.33067202 C34.7185738,6.66223067 34.5578055,5.73794784 33.8911334,5.26915158 C33.6271194,5.08429502 33.1934875,4.85803058 32.5872879,4.64803352 C32.0976083,4.48092318 31.5592558,4.34930531 30.9751802,4.2590953 L30.9751802,1.48033139 C30.9751802,0.662525936 30.3144079,0 29.5002419,0 C28.6860759,0 28.0253035,0.662525936 28.0253035,1.48033139 Z M49.1464207,32.4046168 L36.7023659,38.3244635 C35.6728589,36.0100592 33.3380315,34.3848003 30.6049707,34.3848003 L21.9780563,34.3848003 C18.6063473,34.3848003 16.3187179,35.2647176 13.109252,37.5377139 C10.6520047,39.2783233 7.70360299,40.2159158 4.6770295,40.2159158 C2.09883727,40.2159158 0,42.2877883 0,44.8565551 L0,50.9154139 C0,53.3658726 1.98379208,55.5560532 4.18882491,55.5560532 L22.2922182,58.9988219 C24.2745353,59.0239624 25.6255789,58.646855 27.1447654,57.8556689 C27.6757432,57.5776446 29.5105665,56.50104 29.5828384,56.4596321 L35.40737,53.5714331 C35.4884916,53.5329829 35.5622385,53.4871385 35.6330355,53.4353787 L41.554913,50.6566147 L55.3426367,44.094946 C58.7998922,42.3365904 60.0403153,38.087847 58.0447237,34.7929636 C56.8131502,32.7610202 54.6022176,31.6459654 52.3175381,31.6459654 C51.243783,31.6459654 50.1552785,31.8914549 49.1464207,32.4046168 Z M30.4279781,47.5879957 C33.9855294,47.5879957 37.0239024,44.9097938 37.2525179,41.4226595 C37.2539928,41.3930825 37.2569427,41.3649843 37.2584176,41.3339284 L50.4428915,35.0606359 C52.2954141,34.1215645 54.5343705,34.6938805 55.5240541,36.3294914 C56.6214082,38.1425646 55.9429366,40.4732362 54.043216,41.437448 L40.2982655,47.9813705 L32.7303569,51.5306166 C32.5858129,51.5986438 32.4560183,51.687375 32.343923,51.7923735 L28.2037711,53.8464997 C28.0046544,53.9574136 26.2362033,54.9955681 25.7833973,55.2321845 C24.6609692,55.8163312 23.7656816,56.0662573 22.5665567,56.0662573 L4.46316344,52.6249675 C3.68144612,52.599827 2.9498767,51.7908946 2.9498767,50.9154139 L2.9498767,44.8565551 C2.9498767,43.9322723 3.71831958,43.1750998 4.6770295,43.1750998 C8.31275253,43.1750998 11.8555544,42.0467353 14.8113309,39.9526801 C17.560616,38.0050313 19.2848189,37.3425054 21.9780563,37.3425054 L30.6049707,37.3425054 C32.7539559,37.3425054 34.4471851,39.1200861 34.3085409,41.2304087 C34.186121,43.1189034 32.4707677,44.6288118 30.4279781,44.6288118 L22.3069676,44.6288118 C21.4928016,44.6288118 20.8320292,45.2913377 20.8320292,46.1076643 C20.8320292,46.9269487 21.4928016,47.5879957 22.3069676,47.5879957 L30.4279781,47.5879957 Z" id="path-1"></path>
    </defs>
    <g id="Desktop-_V2" stroke="none" stroke-width="1" fill="none" fill-rule="evenodd">
        <g id="6-Créditos-personal-santander" transform="translate(-952.000000, -1281.000000)">
            <g id="Group-4" transform="translate(952.000000, 1281.000000)">
                <mask id="mask-2" fill="white">
                    <use xlink:href="#path-1"></use>
                </mask>
                <g id="Clip-2"></g>
                <polygon id="Fill-1" fill="#000000" mask="url(#mask-2)" points="-7 67 67 67 67 -7 -7 -7"></polygon>
                <polygon id="Fill-3" fill="#000000" mask="url(#mask-2)" points="-13 73 72 73 72 -13 -13 -13"></polygon>
            </g>
        </g>
    </g>
</svg>