<?xml version="1.0" encoding="UTF-8"?>
<svg width="51px" height="71px" viewBox="0 0 51 71" version="1.1" xmlns="http://www.w3.org/2000/svg" xmlns:xlink="../../../../../../www.w3.org/1999/xlink">
    <!-- Generator: Sketch 52.3 (67297) - http://www.bohemiancoding.com/sketch -->
    <title>Group 4</title>
    <desc>Created with Sketch.</desc>
    <defs>
        <path d="M10.5007358,2.83025386 C9.88396706,3.91943365 9.57637955,5.08283903 9.56362981,6.29303879 C9.53016174,9.34596941 11.307157,12.3682416 14.2316289,15.3372651 C15.0970177,16.2134497 16.0118116,17.0315447 16.9329804,17.7754142 C16.8979187,17.8028454 16.8644506,17.8318902 16.83417,17.860935 C14.4579369,20.0247722 10.5597034,24.5541465 7.37545541,29.5159655 C2.4046499,37.2628577 -0.376387481,45.1243154 0.0411665562,52.6985523 C0.477845206,60.656826 4.30595512,65.8251858 10.6298269,68.5747597 C14.9535831,70.4546033 19.4414921,71 25.4976194,71 C31.5537466,71 36.0432494,70.4546033 40.3685992,68.5747597 C46.692471,65.8267994 50.520581,60.656826 50.9588533,52.6985523 C51.3764074,45.1243154 48.5937763,37.2628577 43.6229708,29.5159655 C40.7208108,24.9962728 37.2305691,20.8364128 34.8352114,18.4966933 C39.726331,14.6369628 42.2077494,10.0027045 41.2292068,6.45278516 C40.0833237,2.29292516 35.1380177,1.45708052 28.8603637,4.1727688 C28.0395991,4.52937433 27.1534921,4.59875912 26.1303253,4.40512716 C24.8569448,4.1630872 23.6074702,3.61930411 21.4192958,2.44298993 C18.2238918,0.726119861 17.449345,0.361446331 15.9847184,0.0984295811 C15.6197571,0.0338855935 15.264358,0 14.920115,0 C13.1000894,0 11.5828701,0.922979023 10.5007358,2.83025386 Z M20.4487217,16.4054681 C20.2160389,16.2505625 19.7873288,15.9407513 19.2295277,15.5002386 C18.2940154,14.7628236 17.3569094,13.9382741 16.4883332,13.0572487 C14.1121001,10.6481444 12.7287532,8.29228881 12.7494715,6.32692439 C12.7558464,5.66696211 12.921593,5.04249903 13.2642423,4.43739915 C13.8762299,3.36112816 14.4435934,3.10133861 15.4285109,3.27560737 C16.410241,3.45310334 17.1194454,3.78711847 19.9243886,5.29422059 C22.3898698,6.61898593 23.8576838,7.25958501 25.5470246,7.57746415 C27.1582732,7.88243449 28.6786799,7.76464171 30.1146195,7.14017863 C34.8686794,5.08283903 37.6736226,5.55723734 38.1597065,7.3209018 C38.7509757,9.46214859 36.6440809,13.1879503 32.2262955,16.4441945 C32.0828609,16.550692 31.9617383,16.6765528 31.8645216,16.8137088 C28.869926,16.0262721 24.0505237,15.9246153 20.582594,16.5087384 C20.5395636,16.4732392 20.4949395,16.4393537 20.4487217,16.4054681 Z M3.2238208,52.5194427 C2.84929714,45.7439376 5.4119952,38.498875 10.04812,31.2764028 C11.7629602,28.6042817 13.6690466,26.0870662 15.6261319,23.8135042 C16.980792,22.2386309 18.2764845,20.888048 18.9665642,20.2587441 C20.2766002,19.0646803 30.7202323,19.0646803 32.0318619,20.2587441 C32.7219417,20.888048 34.0176342,22.2386309 35.3722942,23.8135042 C37.3293796,26.0870662 39.2354659,28.6042817 40.9487125,31.2764028 C45.586431,38.498875 48.1475353,45.7439376 47.7746054,52.5194427 C47.1291497,64.3051749 39.1509989,67.771187 25.4976194,67.771187 C11.8474273,67.771187 3.86927647,64.3035613 3.2238208,52.5194427 Z M23.9054954,30.6777573 L23.9054954,33.5193064 C21.2041439,34.0501807 19.0366878,36.1752915 19.0366878,39.1136565 C19.0366878,41.1742233 20.3817855,42.6361446 22.5317107,43.8092316 C23.3253821,44.2416763 25.2378434,45.0517034 25.0545658,44.9613418 C25.0450035,44.956501 26.7120322,45.6664849 27.2491151,45.9666144 C28.3838421,46.5991455 28.9257061,47.2478125 28.9257061,47.983614 C28.9257061,49.5939865 27.6363885,50.5153519 25.0003794,50.5153519 C24.7246663,50.5153519 24.3660798,50.4669439 23.9533069,50.3733552 C23.529378,50.273312 23.0656062,50.1329288 22.5843034,49.95866 C21.9691284,49.7343697 21.4591387,49.5133065 21.1706758,49.3713097 C20.3770044,48.9856594 19.4255549,49.3229018 19.0446564,50.1264744 C18.6621642,50.9284334 18.9952511,51.8933661 19.7889226,52.2790164 C20.1682274,52.4645804 20.7770275,52.7308243 21.5101377,52.9970682 C22.1030007,53.211677 22.6878951,53.389173 23.24729,53.5182609 C23.4735979,53.5698961 23.6919372,53.6134633 23.9054954,53.6489625 L23.9054954,56.496966 C23.9054954,57.387673 24.6194809,58.1105657 25.4992131,58.1105657 C26.3789452,58.1105657 27.0929308,57.387673 27.0929308,56.496966 L27.0929308,53.5537601 C30.1417127,52.9615691 32.1115478,51.0171814 32.1115478,47.983614 C32.1115478,45.8133224 30.8317925,44.2804027 28.785459,43.1412013 C28.068286,42.739415 26.3167903,41.993932 26.465006,42.0681575 C26.5064427,42.0875207 24.6688862,41.3081521 24.0409614,40.966069 C22.8233611,40.3028795 22.2241232,39.6509852 22.2241232,39.1136565 C22.2241232,37.6840072 23.5628461,36.620645 25.2266874,36.620645 C26.2578227,36.620645 27.108868,36.7690962 27.7909791,37.0111361 C28.152753,37.1369969 28.3567489,37.2451081 28.4029667,37.2806073 C29.1201397,37.7969592 30.1162133,37.6275312 30.6262029,36.9014113 C31.1361926,36.1752915 30.9688522,35.1684053 30.2516793,34.6520534 C29.9664038,34.4455126 29.4978508,34.1954046 28.8412391,33.9630463 C28.3105311,33.7758687 27.7272304,33.6290312 27.0929308,33.5306016 L27.0929308,30.6777573 C27.0929308,29.7854367 26.3789452,29.0641576 25.4992131,29.0641576 C24.6194809,29.0641576 23.9054954,29.7854367 23.9054954,30.6777573 Z" id="path-1"></path>
    </defs>
    <g id="Desktop-_V2" stroke="none" stroke-width="1" fill="none" fill-rule="evenodd">
        <g id="3-Créditos-personal-select-nomina-" transform="translate(-267.000000, -1268.000000)">
            <g id="Group-4" transform="translate(267.000000, 1268.000000)">
                <mask id="mask-2" fill="white">
                    <use xlink:href="#path-1"></use>
                </mask>
                <g id="Clip-2"></g>
                <polygon id="Fill-1" fill="#000000" mask="url(#mask-2)" points="-8 79 59 79 59 -9 -8 -9"></polygon>
                <polygon id="Fill-3" fill="#000000" mask="url(#mask-2)" points="-21 82 72 82 72 -12 -21 -12"></polygon>
            </g>
        </g>
    </g>
</svg>