<?xml version="1.0" encoding="UTF-8"?>
<svg width="75px" height="60px" viewBox="0 0 75 60" version="1.1" xmlns="http://www.w3.org/2000/svg" xmlns:xlink="../../../../../../www.w3.org/1999/xlink">
    <!-- Generator: Sketch 52.3 (67297) - http://www.bohemiancoding.com/sketch -->
    <title>Group 4</title>
    <desc>Created with Sketch.</desc>
    <defs>
        <path d="M8.11074674,0.498793162 L1.01947581,7.06186108 C-0.339825268,8.32009496 -0.339825268,10.4296525 1.01947581,11.6878864 L8.11074674,18.2509543 C8.87112925,18.9541401 10.0595789,18.9091362 10.7636368,18.1496955 C11.4695722,17.3902548 11.4245125,16.2032771 10.66413,15.5000913 L6.05114276,11.2322219 L68.7010289,11.2322219 C70.0603299,11.2322219 71.2450247,12.5110826 71.2450247,14.1349731 L71.2450247,28.1086823 C71.2450247,29.1437719 72.0842616,29.9838446 73.1225123,29.9838446 C74.160763,29.9838446 75,29.1437719 75,28.1086823 L75,14.1349731 C75,10.5027838 72.2025434,7.48189743 68.7010289,7.48189743 L6.09057001,7.48189743 L10.66413,3.2496562 C11.4245125,2.54834551 11.4695722,1.35949264 10.7636368,0.600051924 C10.3937717,0.202517524 9.89060505,0 9.38743836,0 C8.92933136,0 8.47310186,0.165014279 8.11074674,0.498793162 Z M35.5727589,19.0066447 L35.5727589,21.1237029 C33.1827171,21.7312555 31.3071069,23.6551719 31.3071069,26.2860246 C31.3071069,28.2830724 32.6044509,29.6481905 34.6340151,30.7226585 C35.3530928,31.1033164 37.0278119,31.7933762 36.8569605,31.7127442 C36.8682254,31.7146193 38.3176459,32.3165464 38.7626105,32.554692 C39.6131124,33.0141068 39.969835,33.4285176 39.969835,33.8185514 C39.969835,34.8517658 39.0874158,35.466819 37.0127919,35.466819 C36.8081458,35.466819 36.5284001,35.4293158 36.1979623,35.3543093 C35.8449946,35.2774276 35.4563547,35.1611676 35.0508173,35.0186552 C34.5288758,34.8348893 34.0970536,34.6511234 33.8586127,34.5386137 C32.9217463,34.0942002 31.8008862,34.4936098 31.3577991,35.4293158 C30.9128345,36.3650217 31.3127394,37.4844936 32.2496057,37.9270319 C32.5950635,38.090171 33.1432899,38.3226911 33.802288,38.5552113 C34.3392495,38.7446027 34.8668235,38.9002411 35.3775002,39.014626 C35.4432123,39.0296273 35.5089243,39.0427535 35.5727589,39.0558796 L35.5727589,40.9610445 C35.5727589,41.996134 36.4119959,42.8362067 37.4502466,42.8362067 C38.4866198,42.8362067 39.3277342,41.996134 39.3277342,40.9610445 L39.3277342,38.9621215 C41.9862568,38.3301918 43.7248104,36.5487876 43.7248104,33.8185514 C43.7248104,31.7446219 42.483791,30.300747 40.5499787,29.2562816 C39.892858,28.9018759 38.3382982,28.2586953 38.4997622,28.3374521 C38.4960072,28.3374521 36.9132851,27.6848956 36.3913435,27.4073716 C35.4694971,26.9217046 35.0620823,26.4922924 35.0620823,26.2860246 C35.0620823,25.3878219 35.9914387,24.6696347 37.2118056,24.6696347 C38.064185,24.6696347 38.760733,24.7877699 39.3089594,24.9790365 C39.5830726,25.0709194 39.7201292,25.1421756 39.7257616,25.1478011 C40.5743861,25.7403524 41.7459384,25.5359597 42.341102,24.6883863 C42.9362656,23.840813 42.7316194,22.6707117 41.882995,22.0744101 C41.5976168,21.8756429 41.1451423,21.6412477 40.5293264,21.4293543 C40.1538288,21.3018433 39.7558014,21.1968342 39.3277342,21.1143271 L39.3277342,19.0066447 C39.3277342,17.9715551 38.4866198,17.1314824 37.4502466,17.1314824 C36.4119959,17.1314824 35.5727589,17.9715551 35.5727589,19.0066447 Z M0,31.8590068 L0,45.9658525 C0,49.5680392 3.00398027,52.4857917 6.65757128,52.4857917 L68.9451023,52.4857917 L64.33587,56.7499107 C63.5754875,57.4530965 63.5304278,58.6400743 64.2363632,59.399515 C64.9385436,60.1589557 66.1269933,60.2039596 66.8892533,59.5007737 L73.9805242,52.9377058 C75.3398253,51.6794719 75.3398253,49.5699144 73.9805242,48.3116805 L66.8892533,41.7486126 C66.1269933,41.0454268 64.9385436,41.0904306 64.2363632,41.8517465 C63.5304278,42.6093121 63.5754875,43.7944146 64.33587,44.4994756 L68.913185,48.7354672 L6.65757128,48.7354672 C5.05419681,48.7354672 3.75497534,47.4753581 3.75497534,45.9658525 L3.75497534,31.8590068 C3.75497534,30.8220421 2.91573835,29.9838446 1.87748767,29.9838446 C0.841114477,29.9838446 0,30.8220421 0,31.8590068 Z" id="path-1"></path>
    </defs>
    <g id="Desktop-_V2" stroke="none" stroke-width="1" fill="none" fill-rule="evenodd">
        <g id="3-Créditos-personal-select-nomina-" transform="translate(-890.000000, -1272.000000)">
            <g id="Group-4" transform="translate(890.000000, 1272.000000)">
                <mask id="mask-2" fill="white">
                    <use xlink:href="#path-1"></use>
                </mask>
                <g id="Clip-2"></g>
                <polygon id="Fill-1" fill="#000000" mask="url(#mask-2)" points="-9 69 84 69 84 -9 -9 -9"></polygon>
                <polygon id="Fill-3" fill="#000000" mask="url(#mask-2)" points="-17 84 93 84 93 -24 -17 -24"></polygon>
            </g>
        </g>
    </g>
</svg>