<?xml version="1.0" encoding="UTF-8"?>
<svg width="71px" height="44px" viewBox="0 0 71 44" version="1.1" xmlns="http://www.w3.org/2000/svg" xmlns:xlink="../../../../../../www.w3.org/1999/xlink">
    <!-- Generator: Sketch 52.3 (67297) - http://www.bohemiancoding.com/sketch -->
    <title>Group 4</title>
    <desc>Created with Sketch.</desc>
    <defs>
        <path d="M26.3987184,1.44662588 L16.0647866,8.19082597 C15.7582375,8.36220325 15.4726628,8.55878307 15.2080625,8.77216459 L4.18681543,8.77216459 C1.87963005,8.77216459 0,10.7009991 0,13.0935604 L0,29.5289777 C0,31.921539 1.87963005,33.8486933 4.18681543,33.8486933 L10.0822388,33.8503735 L17.1118938,33.8503735 C17.3732673,33.8503735 17.6233468,33.9629448 17.957324,34.3174606 L26.7084943,41.8294981 C29.365791,44.4673641 33.4832296,44.7311507 36.4438486,42.4545211 L47.834568,33.6033886 L54.8642231,33.6033886 L54.8642231,35.9925895 C54.8642231,36.920043 55.588647,37.6727589 56.4792528,37.6727589 L66.1597509,37.6727589 C68.8347953,37.6727589 71,35.4146112 71,32.6322506 L71,9.10819847 C71,6.32751807 68.8347953,4.06937036 66.1597509,4.06937036 L56.4792528,4.06937036 C55.588647,4.06937036 54.8642231,4.82208626 54.8642231,5.74785962 L54.8642231,7.9858453 L52.376335,7.9858453 L34.8142981,0.337714055 C33.9075581,0.114251521 32.9685497,0 32.0214743,0 C30.0773076,0 28.2009044,0.477168118 26.3987184,1.44662588 Z M16.4778212,15.0593586 C15.7162887,13.674899 16.2067673,11.9325633 17.6878835,11.0924786 L27.9895469,4.36844052 C29.222197,3.70813393 30.5936009,3.35865869 32.0214743,3.35865869 C32.7200836,3.35865869 33.4090124,3.44434733 33.8204336,3.52331529 L51.4276462,11.2201714 L52.0520384,11.3461842 L54.8642231,11.3461842 L54.8642231,30.2430497 L47.4166932,30.2430497 L30.9291915,12.8314539 C29.5255192,11.5578855 27.4668,11.3982694 25.866291,12.455096 L20.464573,16.1850721 C20.0095896,16.442138 19.5174976,16.5647904 19.0302459,16.5647904 C18.0024997,16.5647904 17.0086352,16.0187353 16.4778212,15.0593586 Z M58.0926692,7.42802905 L66.1597509,7.42802905 C67.0503568,7.42802905 67.7731673,8.18242512 67.7731673,9.10819847 L67.7731673,32.6322506 C67.7731673,33.5597042 67.0503568,34.3124201 66.1597509,34.3124201 L58.0926692,34.3124201 L58.0926692,7.42802905 Z M4.18681543,30.4883545 C3.65116121,30.4883545 3.2268327,30.0531906 3.2268327,29.5289777 L3.2268327,13.0935604 C3.2268327,12.5693475 3.65116121,12.1325034 4.18681543,12.1325034 L13.0815798,12.1325034 C12.7088806,13.6312146 12.8766759,15.2744203 13.6785438,16.7311272 C15.333909,19.7386305 19.0560605,20.8088984 22.1247784,19.0648825 L27.6184611,15.2761004 C27.9879335,15.0307957 28.4848657,15.0694396 28.7204245,15.2777806 L44.5286779,31.9786647 L34.5206563,39.7544889 C32.8249557,41.0599805 30.4548471,40.9070851 28.8478844,39.3176448 L20.1741581,31.8879356 C19.3884243,30.9957656 18.2767804,30.4900346 17.1118938,30.4900346 L10.0822388,30.4900346 L4.18681543,30.4883545 Z" id="path-1"></path>
    </defs>
    <g id="Desktop-_V2" stroke="none" stroke-width="1" fill="none" fill-rule="evenodd">
        <g id="6-Créditos-personal-santander" transform="translate(-495.000000, -1286.000000)">
            <g id="Group-4" transform="translate(495.000000, 1286.000000)">
                <mask id="mask-2" fill="white">
                    <use xlink:href="#path-1"></use>
                </mask>
                <g id="Clip-2"></g>
                <polygon id="Fill-1" fill="#000000" mask="url(#mask-2)" points="-8 52 79 52 79 -8 -8 -8"></polygon>
                <polygon id="Fill-3" fill="#000000" mask="url(#mask-2)" points="-11 71 82 71 82 -26 -11 -26"></polygon>
            </g>
        </g>
    </g>
</svg>