<?xml version="1.0" encoding="UTF-8"?>
<svg width="52px" height="52px" viewBox="0 0 52 52" version="1.1" xmlns="http://www.w3.org/2000/svg" xmlns:xlink="../../../../../../www.w3.org/1999/xlink">
    <!-- Generator: Sketch 52.3 (67297) - http://www.bohemiancoding.com/sketch -->
    <title>Group 4</title>
    <desc>Created with Sketch.</desc>
    <defs>
        <path d="M0,26 C0,40.3602727 11.6397273,52 26,52 C40.3590909,52 52,40.3602727 52,26 C52,11.6409091 40.3590909,0 26,0 C11.6397273,0 0,11.6409091 0,26 Z M2.36363636,26 C2.36363636,12.9456364 12.9456364,2.36363636 26,2.36363636 C39.0543636,2.36363636 49.6363636,12.9456364 49.6363636,26 C49.6363636,39.0543636 39.0543636,49.6363636 26,49.6363636 C12.9456364,49.6363636 2.36363636,39.0543636 2.36363636,26 Z M24.8181818,11.8181818 L24.8181818,26 C24.8181818,26.3273636 24.9505455,26.6216364 25.1644545,26.8355455 L33.5210909,35.1921818 C33.9831818,35.6542727 34.7300909,35.6542727 35.1921818,35.1921818 C35.6542727,34.7312727 35.6542727,33.9831818 35.1921818,33.5210909 L27.1818182,25.5107273 L27.1818182,11.8181818 C27.1818182,11.1646364 26.6523636,10.6363636 26,10.6363636 C25.3464545,10.6363636 24.8181818,11.1646364 24.8181818,11.8181818 Z" id="path-1"></path>
    </defs>
    <g id="Desktop-_V2" stroke="none" stroke-width="1" fill="none" fill-rule="evenodd">
        <g id="6-Créditos-personal-santander" transform="translate(-727.000000, -1284.000000)">
            <g id="Group-4" transform="translate(727.000000, 1284.000000)">
                <mask id="mask-2" fill="white">
                    <use xlink:href="#path-1"></use>
                </mask>
                <g id="Clip-2"></g>
                <polygon id="Fill-1" fill="#000000" mask="url(#mask-2)" points="-6 58 58 58 58 -6 -6 -6"></polygon>
                <polygon id="Fill-3" fill="#000000" mask="url(#mask-2)" points="-8 61 61 61 61 -8 -8 -8"></polygon>
            </g>
        </g>
    </g>
</svg>