<?xml version="1.0" encoding="UTF-8"?>
<svg width="82px" height="60px" viewBox="0 0 82 60" version="1.1" xmlns="http://www.w3.org/2000/svg" xmlns:xlink="../../../../../../www.w3.org/1999/xlink">
    <!-- Generator: Sketch 52.3 (67297) - http://www.bohemiancoding.com/sketch -->
    <title>Group 4</title>
    <desc>Created with Sketch.</desc>
    <defs>
        <path d="M54.0268182,0.75487013 L5.60954545,28.8517732 C2.93709091,30.4045954 2.01831818,33.8399101 3.56327273,36.5278472 L14.8680909,56.2144106 L1.86363636,56.2144106 C0.834909091,56.2144106 0,57.0516983 0,58.0875375 C0,59.1215035 0.834909091,59.9606643 1.86363636,59.9606643 L17.9244545,59.9606643 C18.0437273,59.9719031 18.1648636,59.9719031 18.2822727,59.9606643 L40.5061364,59.9606643 C40.7558636,60.0131119 41.0167727,60.0131119 41.2739545,59.9606643 L80.1363636,59.9606643 C81.1650909,59.9606643 82,59.1215035 82,58.0875375 C82,57.0516983 81.1650909,56.2144106 80.1363636,56.2144106 L47.9122273,56.2144106 L76.3904545,39.6878122 C79.0647727,38.13499 79.9816818,34.6996753 78.4367273,32.0117383 L61.664,2.81156344 C60.6296818,1.00774226 58.7492727,0 56.8166818,0 C55.8699545,0 54.9083182,0.243506494 54.0268182,0.75487013 Z M6.79295455,34.6547203 C6.27486364,33.7593656 6.5805,32.6148851 7.47318182,32.096029 L55.8904545,3.99912587 C56.7831364,3.48214286 57.9218182,3.78933566 58.4361818,4.68469031 L75.2089091,33.8848651 C75.7251364,34.7802198 75.4195,35.9265734 74.5268182,36.4435564 L40.4576818,56.2144106 L19.1730909,56.2144106 L6.79295455,34.6547203 Z M53.1304091,14.1776973 L36.9875909,23.5433317 C36.0986364,24.0603147 35.793,25.2066683 36.3092273,26.102023 C36.8217273,26.9973776 37.9622727,27.3045704 38.8512273,26.7875874 L54.9940455,17.4238262 C55.8867273,16.90497 56.1905,15.7586164 55.6761364,14.8651349 C55.3313636,14.261988 54.7051818,13.9266983 54.0603636,13.9266983 C53.7435455,13.9266983 53.423,14.0072428 53.1304091,14.1776973 Z M62.5063636,30.5001249 L26.9985,51.1045205 C26.1076818,51.6233766 25.8001818,52.7678571 26.3164091,53.6632118 C26.8345,54.5604396 27.9713182,54.8695055 28.864,54.3487762 L64.37,33.7462537 C65.2608182,33.2273976 65.5664545,32.0829171 65.0520909,31.1856893 C64.7073182,30.5862887 64.0792727,30.2491259 63.4344545,30.2491259 C63.1176364,30.2491259 62.7989545,30.3296703 62.5063636,30.5001249 Z" id="path-1"></path>
    </defs>
    <g id="Desktop-_V2" stroke="none" stroke-width="1" fill="none" fill-rule="evenodd">
        <g id="7-Créditos-linea-express" transform="translate(-305.000000, -1098.000000)">
            <g id="Group-4" transform="translate(305.000000, 1098.000000)">
                <mask id="mask-2" fill="white">
                    <use xlink:href="#path-1"></use>
                </mask>
                <g id="Clip-2"></g>
                <polygon id="Fill-1" fill="#000000" mask="url(#mask-2)" points="-9 69 92 69 92 -9 -9 -9"></polygon>
                <polygon id="Fill-3" fill="#000000" mask="url(#mask-2)" points="-12 84 96 84 96 -24 -12 -24"></polygon>
            </g>
        </g>
    </g>
</svg>