<?xml version="1.0" encoding="UTF-8"?>
<svg width="78px" height="57px" viewBox="0 0 78 57" version="1.1" xmlns="http://www.w3.org/2000/svg" xmlns:xlink="../../../../../../www.w3.org/1999/xlink">
    <!-- Generator: Sketch 52.3 (67297) - http://www.bohemiancoding.com/sketch -->
    <title>Group 4</title>
    <desc>Created with Sketch.</desc>
    <defs>
        <path d="M69.8525461,0 L8.13150521,0.0676896084 C3.63586918,0.0748148303 -0.00531236317,3.74252282 5.81824802e-06,8.26169483 L0.0514149053,48.8291459 C0.0567330867,53.3447553 3.70323281,57.0053381 8.19532339,56.9999942 L69.8667279,56.9590241 C74.3623639,56.9536802 78,53.2913161 78,48.7739254 L78,8.17975478 C78,3.66414538 74.3535003,0 69.8631824,0 C69.859637,0 69.8560915,0 69.8525461,0 Z M3.59686919,48.8255833 L3.5454601,8.25813222 C3.54191464,5.70374016 5.60005086,3.63564449 8.13505067,3.63208188 L69.8560915,3.56261097 C72.3928641,3.55904836 74.4545457,5.62714402 74.4545457,8.17975478 L74.4545457,48.7739254 C74.4545457,51.3265362 72.399955,53.3928506 69.8649552,53.3964132 L8.19177793,53.4356019 C8.19000521,53.4356019 8.18823248,53.4356019 8.18468703,53.4356019 C5.6550054,53.4356019 3.60041464,51.3710688 3.59686919,48.8255833 Z M37.2272758,14.2486626 L37.2272758,17.3677285 C34.1640033,17.9395275 31.6981398,20.2961947 31.6981398,23.5666715 C31.6981398,25.8538678 33.2209124,27.4695119 35.6584122,28.7663022 C36.5554122,29.2419108 38.7128211,30.1361262 38.5195939,30.0434983 C38.5018666,30.0363731 40.4022301,30.8237101 41.0155937,31.1585955 C42.3096845,31.8604299 42.9265935,32.5818586 42.9265935,33.3923526 C42.9265935,35.1700955 41.4481391,36.2050339 38.434503,36.2050339 C38.1136393,36.2050339 37.7023666,36.1498135 37.2308212,36.0447165 C36.7468667,35.9342755 36.2168213,35.7775206 35.6690486,35.5833583 C34.9688214,35.3339756 34.3873669,35.0863741 34.0611851,34.9296192 C33.1748215,34.5092311 32.1182761,34.8868679 31.6999125,35.7775206 C31.2780035,36.6646108 31.6555944,37.7262688 32.5401852,38.1502195 C32.9709579,38.3550697 33.658776,38.6489851 34.4901851,38.9429005 C35.1638214,39.1798141 35.8215031,39.377539 36.4561395,39.5200434 C36.7202758,39.5806078 36.9773212,39.6287031 37.2272758,39.6678918 L37.2272758,42.7513316 C37.2272758,43.7328309 38.0196848,44.5326371 39.0000029,44.5326371 C39.9785483,44.5326371 40.77273,43.7328309 40.77273,42.7513316 L40.77273,39.5627948 C44.2330934,38.9143996 46.4738205,36.7625826 46.4738205,33.3923526 C46.4738205,30.9822463 45.0201843,29.2846621 42.7032299,28.0252792 C41.8913209,27.5835154 39.8916847,26.7534271 40.0689574,26.840711 C40.1097301,26.8603054 38.0303212,25.9963722 37.3176849,25.6169542 C35.9278668,24.8794937 35.2435941,24.152721 35.2435941,23.5666715 C35.2435941,21.9848723 36.7770031,20.7949602 38.6915484,20.7949602 C39.8704119,20.7949602 40.8436391,20.9606216 41.6236391,21.2295987 C42.04023,21.3738845 42.2724572,21.4950133 42.3291845,21.5359833 C43.1304571,22.1006571 44.2366389,21.9064948 44.7985934,21.1013448 C45.3605479,20.2961947 45.1673206,19.1846601 44.366048,18.6199862 C44.0451844,18.3937604 43.5151389,18.1158768 42.7759117,17.8611501 C42.1678663,17.6491747 41.4995482,17.4870759 40.77273,17.3801976 L40.77273,14.2486626 C40.77273,13.2653819 39.9785483,12.4691384 39.0000029,12.4691384 C38.0196848,12.4691384 37.2272758,13.2653819 37.2272758,14.2486626 Z" id="path-1"></path>
    </defs>
    <g id="Desktop-_V2" stroke="none" stroke-width="1" fill="none" fill-rule="evenodd">
        <g id="3-Créditos-personal-select-nomina-" transform="translate(-579.000000, -1272.000000)">
            <g id="Group-4" transform="translate(579.000000, 1272.000000)">
                <mask id="mask-2" fill="white">
                    <use xlink:href="#path-1"></use>
                </mask>
                <g id="Clip-2"></g>
                <polygon id="Fill-1" fill="#000000" mask="url(#mask-2)" points="-8 66 87 66 87 -9 -8 -9"></polygon>
                <polygon id="Fill-3" fill="#000000" mask="url(#mask-2)" points="-12 80 92 80 92 -24 -12 -24"></polygon>
            </g>
        </g>
    </g>
</svg>