<svg width="39" height="39" viewBox="0 0 39 39" fill="none" xmlns="../../../../www.w3.org/2000/svg.html">
<path fill-rule="evenodd" clip-rule="evenodd" d="M11.039 23.2241C11.5568 23.2241 11.9765 23.6426 11.9765 24.1588L11.9747 25.092L17.2372 25.0934C18.213 25.0934 19.1528 25.4369 19.8947 26.0566L20.1633 26.3018C20.5877 26.725 21.1632 26.9628 21.7635 26.9628H27.9379C29.3229 26.9628 30.473 27.9598 30.7069 29.2728L33.8064 27.8262C35.2792 27.0756 37.1597 27.4557 37.9069 29C38.6535 30.5428 38.1563 32.1629 36.6017 33.1725L28.7312 37.2426C26.6138 38.3339 22.2306 38.5646 19.9948 37.8019L11.9747 36.207L11.9765 37.244C11.9765 37.7602 11.5568 38.1786 11.039 38.1786H5.06529C2.6821 38.1786 0.750916 36.2518 0.750916 33.8755V24.1588C0.750916 23.6426 1.17065 23.2241 1.68842 23.2241H11.039ZM11.9747 34.3002L20.4787 35.9999C22.3633 36.6359 26.2193 36.4329 27.869 35.5826L35.6563 31.561C36.3585 31.1024 36.5463 30.4904 36.2182 29.8122C35.9797 29.3194 35.2753 29.177 34.6311 29.5047L30.0057 31.6676C29.4919 32.2229 28.7559 32.5707 27.9379 32.5707H22.3129C21.7951 32.5707 21.3754 32.1522 21.3754 31.636C21.3754 31.1198 21.7951 30.7014 22.3129 30.7014H27.9379C28.139 30.7014 28.3252 30.6384 28.4778 30.5311C28.5645 30.3533 28.7118 30.2068 28.904 30.117L28.7698 30.1984C28.8372 30.0693 28.8754 29.9225 28.8754 29.7667C28.8754 29.2503 28.4562 28.8321 27.9379 28.8321H21.7635C20.6658 28.8321 19.6135 28.3973 18.8374 27.6237C18.413 27.2005 17.8376 26.9628 17.2372 26.9628L11.9747 26.9614V34.3002ZM10.1015 25.0934H2.62592V33.8755C2.62592 35.2198 3.71795 36.3093 5.06529 36.3093H10.1015V25.0934ZM17.919 0.768279C18.5789 0.696803 19.3025 0.824469 20.3864 1.12827C20.5172 1.16492 20.6073 1.19087 20.8234 1.25375C22.0059 1.59895 22.3495 1.68397 22.6339 1.68199C22.9014 1.68396 23.2411 1.59973 24.4257 1.25377C24.5359 1.2217 24.614 1.19904 24.6812 1.17973L24.8716 1.12579C25.9518 0.823408 26.6765 0.696318 27.3362 0.768786C28.4291 0.888847 29.1294 1.62596 29.1294 2.80729C29.1294 4.04158 28.432 5.15574 27.3099 6.17684C27.1364 6.33467 26.9634 6.4812 26.7947 6.61581C29.5199 8.78197 31.1844 12.0952 31.1844 15.739C31.1844 19.9661 27.9599 21.8124 22.625 21.8124C17.2919 21.8124 14.0675 19.9659 14.0675 15.739C14.0675 12.0957 15.7317 8.78246 18.4537 6.61258C18.2862 6.47919 18.1144 6.33359 17.9421 6.17684C16.8199 5.15574 16.1225 4.04158 16.1225 2.80729C16.1225 1.62411 16.8243 0.886841 17.919 0.768279ZM24.884 7.53828L20.3625 7.53825C17.643 9.3218 15.9425 12.3585 15.9425 15.739C15.9425 18.6558 18.1903 19.9431 22.625 19.9431C27.0615 19.9431 29.3094 18.6559 29.3094 15.739C29.3094 12.2699 27.5188 9.16348 24.6729 7.40141L24.884 7.53828ZM27.1308 2.62685C26.7874 2.58912 26.2326 2.68641 25.3784 2.92551C25.2529 2.96065 25.1669 2.98539 24.9528 3.04771C23.4963 3.47306 23.1648 3.55527 22.6338 3.55125L22.5106 3.55051C22.0279 3.54037 21.6365 3.43893 20.2965 3.04774C20.1915 3.01718 20.1179 2.99583 20.0552 2.9778L19.879 2.92782C19.0208 2.68729 18.4658 2.58937 18.1215 2.62666C17.9567 2.64451 17.9975 2.6016 17.9975 2.80729C17.9975 3.39512 18.4357 4.09513 19.2061 4.79613C19.6176 5.17059 20.0331 5.47131 20.3477 5.66921H24.9042C25.2189 5.47131 25.6343 5.17059 26.0459 4.79613C26.8163 4.09513 27.2544 3.39512 27.2544 2.80729C27.2544 2.60223 27.2949 2.64488 27.1308 2.62685Z" fill="#EC0000"/>
</svg>
