<svg width="39" height="31" viewBox="0 0 39 31" fill="none" xmlns="../../../../www.w3.org/2000/svg.html">
<path fill-rule="evenodd" clip-rule="evenodd" d="M36.371 22.0825C36.3711 22.0754 36.375 22.0696 36.375 22.0625L36.3768 18.5029C36.3768 16.8715 35.2819 15.4176 33.698 14.9617L32.6043 14.6652C32.6083 14.6298 32.625 14.5989 32.625 14.5625C32.625 6.80798 26.317 0.5 18.5625 0.5H14.8125H6.38049C4.30957 0.5 2.625 2.18457 2.625 4.25549V13.7977C1.53609 14.186 0.75 15.2169 0.75 16.4375V25.8125C0.75 28.3979 2.85205 30.5 5.4375 30.5C6.96529 30.5 8.31123 29.755 9.16747 28.621C9.17457 28.6211 9.1804 28.625 9.1875 28.625H29.8125C29.8196 28.625 29.8254 28.6211 29.8325 28.621C30.6888 29.755 32.0347 30.5 33.5625 30.5C36.1479 30.5 38.25 28.3979 38.25 25.8125C38.25 24.2847 37.505 22.9388 36.371 22.0825ZM30.7294 14.1569L18.5479 10.8546C16.8999 10.4078 15.75 8.90271 15.75 7.19617V2.375H18.5625C25.1456 2.375 30.5129 7.62566 30.7294 14.1569ZM5.4375 28.625C3.8866 28.625 2.625 27.3634 2.625 25.8125C2.625 24.2616 3.8866 23 5.4375 23C6.9884 23 8.25 24.2616 8.25 25.8125C8.25 27.3634 6.9884 28.625 5.4375 28.625ZM10.0302 26.75C10.0919 26.447 10.125 26.1336 10.125 25.8125C10.125 23.2271 8.02295 21.125 5.4375 21.125C4.37801 21.125 3.41075 21.4913 2.625 22.0858V16.4375C2.625 15.9211 3.04614 15.5 3.5625 15.5C4.08069 15.5 4.5 15.0807 4.5 14.5625V4.25549C4.5 3.21912 5.34412 2.375 6.38049 2.375H13.875V7.19617C13.875 9.74866 15.5944 11.9972 18.0571 12.6637L33.1926 16.7671C33.9635 16.9886 34.5018 17.7028 34.5018 18.5029L34.5005 21.2198C34.1973 21.158 33.8837 21.125 33.5625 21.125C30.9771 21.125 28.875 23.2271 28.875 25.8125C28.875 26.1336 28.9081 26.447 28.9698 26.75H10.0302ZM33.5625 28.625C32.0116 28.625 30.75 27.3634 30.75 25.8125C30.75 24.2616 32.0116 23 33.5625 23C35.1134 23 36.375 24.2616 36.375 25.8125C36.375 27.3634 35.1134 28.625 33.5625 28.625Z" fill="#EC0000"/>
</svg>
