<svg width="39" height="39" viewBox="0 0 39 39" fill="none" xmlns="../../../../www.w3.org/2000/svg.html">
<path fill-rule="evenodd" clip-rule="evenodd" d="M19.509 0.75C22.1902 0.75 24.6877 2.19372 26.0283 4.51492L38.1255 25.4676C38.3843 25.9157 38.2305 26.4876 37.7805 26.7482C37.3324 27.0032 36.7606 26.8532 36.4999 26.4051L32.6306 19.7025L32.6313 34.8394C32.6313 36.72 31.0994 38.25 29.2189 38.25H9.79292C7.91046 38.25 6.38049 36.72 6.38049 34.8394L6.37875 19.6931L2.50123 26.4051C2.32686 26.707 2.01187 26.8739 1.6875 26.8739C1.52813 26.8739 1.36688 26.8345 1.21876 26.7482C0.770644 26.4895 0.616897 25.9157 0.875642 25.4676L12.9898 4.51117C14.3322 2.19185 16.8297 0.75 19.509 0.75ZM19.509 2.62496C17.4972 2.62496 15.6203 3.70869 14.6154 5.44866L8.25375 16.4494L8.25545 34.8394C8.25545 35.6851 8.94544 36.375 9.79292 36.375L14.6044 36.375L14.6045 24.4428C14.6045 23.3834 15.467 22.5209 16.5263 22.5209H22.4737C23.5331 22.5209 24.3955 23.3834 24.3955 24.4428L24.3937 36.375L29.2189 36.375C30.0663 36.375 30.7563 35.6851 30.7563 34.8394L30.7556 16.455L24.4045 5.45241C23.3977 3.70869 21.5227 2.62496 19.509 2.62496ZM16.5263 24.3959L16.4832 36.375H22.5206V24.4428L16.5263 24.3959Z" fill="#EC0000"/>
</svg>
