<svg width="39" height="39" viewBox="0 0 39 39" fill="none" xmlns="../../../../www.w3.org/2000/svg.html">
<path fill-rule="evenodd" clip-rule="evenodd" d="M0.75 33.6083C0.75 36.1672 2.70923 38.25 5.1176 38.25H31.6765C34.0849 38.25 36.0441 36.1672 36.0441 33.6083V28.875H37.1471C37.7567 28.875 38.25 28.3509 38.25 27.7031V18.3281C38.25 17.6804 37.7567 17.1562 37.1471 17.1562H36.0441V12.423C36.0441 9.86407 34.0849 7.78125 31.6765 7.78125H31.6324V5.47183C31.6324 2.86716 29.6387 0.75 27.1883 0.75H5.16176C2.72862 0.75 0.75 2.85342 0.75 5.4375V33.6083ZM36.0441 26.5312H27.2206V19.5H36.0441V26.5312ZM33.8382 12.423V17.1562H26.1176C25.508 17.1562 25.0147 17.6804 25.0147 18.3281V27.7031C25.0147 28.3509 25.508 28.875 26.1176 28.875H33.8382V33.6083C33.8382 34.8763 32.8689 35.9062 31.6765 35.9062H5.1176C3.92526 35.9062 2.95588 34.8763 2.95588 33.6083V9.47297C3.60739 9.87666 4.35462 10.125 5.16176 10.125H30.5294H31.6765C32.8689 10.125 33.8382 11.155 33.8382 12.423ZM5.16176 3.09375H27.1883C28.4226 3.09375 29.4265 4.16034 29.4265 5.47183V7.78125H5.16176C3.94573 7.78125 2.95588 6.73068 2.95588 5.4375C2.95588 4.14432 3.94573 3.09375 5.16176 3.09375Z" fill="#EC0000"/>
</svg>
