<svg width="39" height="39" viewBox="0 0 39 39" fill="none" xmlns="../../../../www.w3.org/2000/svg.html">
<path fill-rule="evenodd" clip-rule="evenodd" d="M18.5627 9.1851C18.5627 4.52737 22.3406 0.749512 27.0002 0.749512H34.5002C35.018 0.749512 35.4377 1.16924 35.4377 1.68701C35.4377 6.34665 31.6598 10.1245 27.0002 10.1245H20.4375L20.4395 34.5097C25.9969 34.5656 31.3212 35.1184 36.2316 36.1261L37.5184 36.4028C38.0235 36.5164 38.341 37.018 38.2274 37.5231C38.1138 38.0283 37.6122 38.3457 37.107 38.2321C31.7109 37.0186 25.7525 36.38 19.5002 36.38L19.5169 36.3783C19.4944 36.3801 19.4887 36.3801 19.483 36.38C13.2656 36.3811 7.20648 37.0154 1.89083 38.1952C1.38536 38.3074 0.884658 37.9886 0.772472 37.4831C0.660285 36.9776 0.979102 36.4769 1.48457 36.3647C6.94163 35.1535 13.1429 34.505 19.5002 34.505L18.5625 34.5108V18.5601H12.493C7.71079 18.5601 3.7859 15.0022 3.57155 10.5099L3.56233 10.1226C3.56233 9.60487 3.98206 9.18514 4.49983 9.18514H11.5067C14.3705 9.18514 16.9269 10.4611 18.5631 12.4496L18.5627 9.1851ZM11.5067 11.0601H5.509C5.99781 14.2302 8.9284 16.6851 12.493 16.6851H18.4907C18.0018 13.5151 15.0713 11.0601 11.5067 11.0601ZM33.4962 2.62451H27.0002C23.6944 2.62451 20.9591 5.06942 20.5042 8.24951H27.0002C30.306 8.24951 33.0413 5.8046 33.4962 2.62451Z" fill="#EC0000"/>
</svg>
