<svg width="39" height="39" viewBox="0 0 39 39" fill="none" xmlns="../../../../www.w3.org/2000/svg.html">
<path fill-rule="evenodd" clip-rule="evenodd" d="M7.8803 6.57759C16.3595 -1.33434 29.6557 -1.19765 37.972 7.03064C38.3416 7.39633 38.343 7.99295 37.9751 8.36038L23.8518 22.4658L37.9769 36.651C38.3016 36.9771 38.3367 37.4823 38.0829 37.8472L37.9741 37.9768C37.6072 38.3421 37.0136 38.3409 36.6483 37.974L22.5243 23.7914L8.40448 37.8954C8.07899 38.2205 7.57405 38.2565 7.20884 38.0034L7.07905 37.895L7.01514 37.8303L6.95376 37.7696C-1.18741 29.4969 -1.30145 16.337 6.55448 7.90466L4.07383 5.42507C3.70749 5.05917 3.70713 4.46558 4.07303 4.09924C4.43893 3.7329 5.03252 3.73255 5.39886 4.09844L7.8803 6.57759ZM7.02372 10.2154L6.98813 10.259C0.929124 17.7586 1.17036 28.6804 7.75627 35.8928L15.1096 28.5498C10.5114 23.8393 7.56053 17.0561 7.02372 10.2154ZM8.82459 8.79026L8.84537 9.33566C9.18674 15.9835 11.996 22.6671 16.4356 27.224L21.8587 21.8039L21.8701 21.7948L27.2161 16.4557C22.6129 11.962 15.6114 9.07894 8.82459 8.79026ZM35.9672 7.71577C28.7086 1.17671 17.7941 0.942727 10.2513 7.00529C17.0631 7.61209 23.907 10.5956 28.5441 15.132L35.9672 7.71577Z" fill="#EC0000"/>
</svg>
