<svg width="39" height="27" viewBox="0 0 39 27" fill="none" xmlns="../../../../www.w3.org/2000/svg.html">
<path fill-rule="evenodd" clip-rule="evenodd" d="M34.5714 0.375C36.6002 0.375 38.25 2.30081 38.25 4.66775V22.3322C38.25 24.6992 36.6002 26.625 34.5714 26.625H4.42493C2.39795 26.625 0.75 24.7013 0.75 22.3376V4.66775C0.75 2.30081 2.39978 0.375 4.42859 0.375H34.5714ZM36.375 20.0625H2.625V22.3376C2.625 23.4954 3.4325 24.4375 4.42493 24.4375H34.5714C35.5657 24.4375 36.375 23.4933 36.375 22.3322V20.0625ZM36.375 15.6875H2.625V17.875H36.375V15.6875ZM34.5714 2.5625H4.42859C3.43433 2.5625 2.625 3.50671 2.625 4.66775V13.5H36.375V4.66775C36.375 3.50671 35.5657 2.5625 34.5714 2.5625Z" fill="#EC0000"/>
</svg>
