<svg width="39" height="39" viewBox="0 0 39 39" fill="none" xmlns="../../../../www.w3.org/2000/svg.html">
<path fill-rule="evenodd" clip-rule="evenodd" d="M19.5705 0.75C21.5993 0.75 23.25 2.4007 23.25 4.4295V5.44666C23.25 5.96484 22.8307 6.38416 22.3125 6.38416C21.7943 6.38416 21.375 5.96484 21.375 5.44666V4.4295C21.375 3.43433 20.5657 2.625 19.5705 2.625H4.4295C3.43433 2.625 2.625 3.43433 2.625 4.4295V34.5705C2.625 35.5657 3.43433 36.375 4.4295 36.375H19.5705C20.5657 36.375 21.375 35.5657 21.375 34.5705V33.5643C21.375 33.0461 21.7943 32.6268 22.3125 32.6268C22.8307 32.6268 23.25 33.0461 23.25 33.5643V34.5705C23.25 36.5993 21.5993 38.25 19.5705 38.25H4.4295C2.4007 38.25 0.75 36.5993 0.75 34.5705V4.4295C0.75 2.4007 2.4007 0.75 4.4295 0.75H19.5705ZM12.9375 32.625C13.4557 32.625 13.875 33.0443 13.875 33.5625C13.875 34.0807 13.4557 34.5 12.9375 34.5H11.0625C10.5443 34.5 10.125 34.0807 10.125 33.5625C10.125 33.0443 10.5443 32.625 11.0625 32.625H12.9375ZM34.5604 10.125C36.5947 10.125 38.25 11.7803 38.25 13.8146V25.1854C38.25 27.2197 36.5947 28.875 34.5604 28.875H15.6896C13.6553 28.875 12 27.2197 12 25.1854V13.8146C12 11.7803 13.6553 10.125 15.6896 10.125H34.5604ZM36.375 25.125H13.875V25.1854C13.875 26.1861 14.6889 27 15.6896 27H34.5604C35.5611 27 36.375 26.1861 36.375 25.1854V25.125ZM36.375 21.375H13.875V23.25H36.375V21.375ZM34.5604 12H15.6896C14.6889 12 13.875 12.8139 13.875 13.8146V19.5H36.375V13.8146C36.375 12.8139 35.5611 12 34.5604 12ZM14.8125 4.5C15.3307 4.5 15.75 4.91931 15.75 5.4375C15.75 5.95569 15.3307 6.375 14.8125 6.375H9.1875C8.66931 6.375 8.25 5.95569 8.25 5.4375C8.25 4.91931 8.66931 4.5 9.1875 4.5H14.8125Z" fill="#EC0000"/>
</svg>
