<svg id="Capa_1" data-name="Capa 1" xmlns="http://www.w3.org/2000/svg" viewBox="0 0 418.02 139.11"><defs><style>.cls-1{fill:#e41513;}</style></defs><title>Logo_workcafe</title><path d="M85.52,75.34c0-9.79,5.33-15.82,14.31-15.82,9.39,0,14,6.55,14,15.36,0,9.91-5.22,15.93-14.37,15.93s-14-6.54-14-15.47m24.22-.17c0-7.59-3.47-12-10-12-6.78,0-10.09,4.75-10.09,11.88,0,7.77,3.48,12.11,10.09,12.11s10-4.69,10-12"/><path d="M134.14,60.56a14.33,14.33,0,0,1-.4,3.54,34.11,34.11,0,0,0-4.46-.23,29.28,29.28,0,0,0-5.68.63V90.81h-4.06v-29a33.43,33.43,0,0,1,9.62-1.51,41.22,41.22,0,0,1,5,.23"/><path d="M139.07,50.71a13.84,13.84,0,0,1,4.06-.58V90.81h-4.06ZM163,90.81h-5.1l-13.28-16v-.41l12.46-13.5h5L149.44,74.59Z"/><path d="M174.89,70c0-13.21,7-20.86,19.18-20.86a24.22,24.22,0,0,1,8.64,1.39,14.93,14.93,0,0,1-.7,3.88A23,23,0,0,0,194.07,53c-9,0-14.95,5.8-14.95,16.81,0,10.83,5.91,17.15,15.07,17.15a21,21,0,0,0,8.17-1.62,23.34,23.34,0,0,1-.64,4.29,23.57,23.57,0,0,1-8.05,1.21c-12.11,0-18.78-8.28-18.78-20.86"/><path d="M230.41,61.14v29h-3.77l-.11-2.26a11.73,11.73,0,0,1-7.88,3c-8.23,0-13.33-5.5-13.33-15.41,0-10.2,5-15.88,15.41-15.88a26.29,26.29,0,0,1,9.68,1.62M219,87.45a10.22,10.22,0,0,0,7.35-3V63.81a21,21,0,0,0-5.62-.7c-7.76,0-11.3,4.52-11.3,12.29,0,7.48,3.25,12,9.57,12"/><path d="M242,59.17v1.74h10a24.42,24.42,0,0,1-.46,3.71H242V90.81h-4.06V59.29c0-6.38,3.07-9.39,9.85-9.39a18.17,18.17,0,0,1,5.22.64c-.06,1.21-.18,2.55-.29,3.41a25.58,25.58,0,0,0-4.81-.52C244,53.43,242,55,242,59.17"/><path d="M279.17,76.56h-21.5c.52,7,4.18,10.66,10.78,10.66a19.62,19.62,0,0,0,9.74-2.49c-.12,1-.35,2.61-.64,3.88a17.63,17.63,0,0,1-9.21,2.2C258.66,90.81,253.5,85,253.5,75c0-8.63,3.94-15.47,13.45-15.47,8.69,0,12.46,6,12.46,13.45a23.62,23.62,0,0,1-.24,3.59m-21.5-3.65h17.62v-.23c0-5.74-2.78-9.62-8.52-9.62s-8.63,3.82-9.1,9.85m7.71-15.53H265l2.26-7.54a12.45,12.45,0,0,1,4.52-.81c-.92,3.48-3.3,7.13-6.43,8.35"/><path d="M362.61,50.29h-45l-1.89,4.06H355.3c-.41,14.52-5.05,31.54-24.54,31.54-10.68,0-18-5.07-21.72-15.09l-.43-1.16-2.32,5,.11.22a25.86,25.86,0,0,0,9.41,11.1h-7.44a2,2,0,0,0,0,4.06h45.86a2,2,0,0,0,0-4.06h-8.52A26.35,26.35,0,0,0,355.84,73.2a1.15,1.15,0,0,0,.07-.15,12.37,12.37,0,1,0,6.7-22.76m0,20.67A8.26,8.26,0,0,1,357.27,69a60.23,60.23,0,0,0,2.06-14.55v-.12h3.28a8.31,8.31,0,1,1,0,16.62"/><path class="cls-1" d="M37.8,124.1a10.68,10.68,0,0,1,.6-3.23,15,15,0,0,0,5.86,1.25c3,0,4.65-1,4.65-2.85s-1.22-2.73-4.23-4l-1.63-.7c-3-1.32-5.06-3-5.06-6.41,0-3.65,2.53-6,7.71-6a17.52,17.52,0,0,1,5.86.92,12.15,12.15,0,0,1-.64,3.21,16.27,16.27,0,0,0-5.25-.93c-2.78,0-4.06,1.09-4.06,2.78s1.24,2.63,3.49,3.59l1.72.74c4.07,1.72,5.77,3.55,5.77,6.66,0,3.68-2.79,6.21-8.23,6.21a15.4,15.4,0,0,1-6.56-1.22m32-15.3v16H66.55l-.19-1.93a4.93,4.93,0,0,1-4.52,2.31c-4.22,0-7-3.07-7-8.45,0-5.64,3-8.84,8.93-8.84a17.89,17.89,0,0,1,6.05.9m-3.52,12.36V111.1a14.34,14.34,0,0,0-2.53-.19c-3.65,0-5.35,2.24-5.35,5.83,0,3.26,1.32,5.57,4.46,5.57a5.54,5.54,0,0,0,3.42-1.15m21.55-7.11v10.76H84.29V114.66c0-2.53-.83-3.75-4.36-3.75a17.66,17.66,0,0,0-2.78.26v13.64H73.63v-16a29.6,29.6,0,0,1,6.4-.9c5.89,0,7.78,2.27,7.78,6.15m9.77,8.13a7.94,7.94,0,0,0,2.75-.48,29.26,29.26,0,0,1-.41,3,8.1,8.1,0,0,1-3,.51c-3.43,0-5.6-1.57-5.6-5.48V102.9a12.19,12.19,0,0,1,3.52-.51v6h5.57a28.68,28.68,0,0,1-.32,3H94.86v7.85c0,2.08,1,2.88,2.72,2.88m18.89-13.38v16h-3.23l-.19-1.93a4.93,4.93,0,0,1-4.52,2.31c-4.23,0-7-3.07-7-8.45,0-5.64,3-8.84,8.93-8.84a18,18,0,0,1,6,.9M113,121.16V111.1a14.42,14.42,0,0,0-2.53-.19c-3.65,0-5.35,2.24-5.35,5.83,0,3.26,1.31,5.57,4.45,5.57a5.55,5.55,0,0,0,3.43-1.15m21.55-7.11v10.76H131V114.66c0-2.53-.84-3.75-4.36-3.75a17.66,17.66,0,0,0-2.78.26v13.64h-3.53v-16a29.76,29.76,0,0,1,6.41-.9c5.89,0,7.78,2.27,7.78,6.15m17.87-11.66v22.42h-3.24l-.19-2a4.85,4.85,0,0,1-4.58,2.43c-4.22,0-7-3.07-7-8.45,0-5.64,3-8.84,8.93-8.84a13.8,13.8,0,0,1,2.63.26v-5.29a10.83,10.83,0,0,1,3.49-.48m-3.49,18.7v-9.86a14.26,14.26,0,0,0-2.82-.32c-3.49,0-5.16,2.18-5.16,5.83,0,3.26,1.32,5.57,4.46,5.57a5.64,5.64,0,0,0,3.52-1.22m21.2-3.14H158.84c.44,2.85,2.11,4.23,5.25,4.23a13.71,13.71,0,0,0,5.63-1.22c-.13.93-.32,2.15-.54,3.21a12.22,12.22,0,0,1-5.19,1c-5.89,0-8.74-3.27-8.74-8.74,0-4.77,2.21-8.55,7.81-8.55,5,0,7.21,3.3,7.21,7.33a20,20,0,0,1-.19,2.72M158.77,115h7.94c0-2.63-1.41-4.17-3.84-4.17s-3.81,1.45-4.1,4.17m23.63-7a12.78,12.78,0,0,1-.32,3,21.76,21.76,0,0,0-2.65-.13,17.5,17.5,0,0,0-2.6.19v13.71h-3.52v-16a21.16,21.16,0,0,1,6-.9,27.49,27.49,0,0,1,3.07.13"/><path class="cls-1" d="M270.05,125.32a33.65,33.65,0,0,0,4.71-.51L328.66,9a44.47,44.47,0,0,0-4.72.52Z"/><polygon points="85.52 50.71 73.17 90.81 68.36 90.81 59.21 58.77 49.99 90.81 45.24 90.81 33.3 50.71 37.76 50.71 47.62 85.42 57.59 50.71 60.95 50.71 70.86 85.72 81.23 50.71 85.52 50.71"/></svg>