<svg width="50" height="51" viewBox="0 0 50 51" fill="white" xmlns="../../../www.w3.org/2000/svg.html">
<path fill-rule="evenodd" 
clip-rule="evenodd" d="M32.2917 40.0746C32.8667 40.0746 33.3333 40.5441 33.3333 41.1227V45.315C33.3333 45.8915 32.8667 46.3631 32.2917 46.3631H28.125C27.55 46.3631 27.0833 45.8915 27.0833 45.315V41.1227C27.0833 40.5441 27.55 40.0746 28.125 40.0746H32.2917ZM44.7967 40.0746C45.3717 40.0746 45.8383 40.5441 45.8383 41.1227V45.315C45.8383 45.8915 45.3717 46.3631 44.7967 46.3631H40.63C40.055 46.3631 39.5883 45.8915 39.5883 45.315V41.1227C39.5883 40.5441 40.055 40.0746 40.63 40.0746H44.7967ZM19.7917 27.4974C21.5175 27.4974 22.9167 28.9042 22.9167 30.6417V43.2188C22.9167 44.9563 21.5175 46.3631 19.7917 46.3631H7.29167C5.56581 46.3631 4.16667 44.9563 4.16667 43.2188V30.6417C4.16667 28.9042 5.56581 27.4974 7.29167 27.4974H19.7917ZM19.7917 29.5936H7.29167C6.71608 29.5936 6.25 30.0622 6.25 30.6417V43.2188C6.25 43.7983 6.71608 44.2669 7.29167 44.2669H19.7917C20.3673 44.2669 20.8333 43.7983 20.8333 43.2188V30.6417C20.8333 30.0622 20.3673 29.5936 19.7917 29.5936ZM15.625 32.7379C16.775 32.7379 17.7083 33.6749 17.7083 34.8341V39.0265C17.7083 40.1857 16.775 41.1227 15.625 41.1227H11.4583C10.3083 41.1227 9.375 40.1857 9.375 39.0265V34.8341C9.375 33.6749 10.3083 32.7379 11.4583 32.7379H15.625ZM38.1948 34.31C38.674 34.31 39.0615 34.702 39.0615 35.1841V38.6764C39.0615 39.1585 38.674 39.5505 38.1948 39.5505H34.7219C34.2427 39.5505 33.8531 39.1585 33.8531 38.6764V35.1841C33.8531 34.702 34.2427 34.31 34.7219 34.31H38.1948ZM32.2917 27.4974C32.8667 27.4974 33.3333 27.9669 33.3333 28.5455V32.7379C33.3333 33.3164 32.8667 33.786 32.2917 33.786H28.125C27.55 33.786 27.0833 33.3164 27.0833 32.7379V28.5455C27.0833 27.9669 27.55 27.4974 28.125 27.4974H32.2917ZM44.7967 27.4974C45.3717 27.4974 45.8383 27.9669 45.8383 28.5455V32.7379C45.8383 33.3164 45.3717 33.786 44.7967 33.786H40.63C40.055 33.786 39.5883 33.3164 39.5883 32.7379V28.5455C39.5883 27.9669 40.055 27.4974 40.63 27.4974H44.7967ZM19.7917 4.43927C21.5175 4.43927 22.9167 5.84608 22.9167 7.58356V20.1607C22.9167 21.8982 21.5175 23.305 19.7917 23.305H7.29167C5.56581 23.305 4.16667 21.8982 4.16667 20.1607V7.58356C4.16667 5.84608 5.56581 4.43927 7.29167 4.43927H19.7917ZM42.7083 4.43927C44.4342 4.43927 45.8333 5.84608 45.8333 7.58356V20.1607C45.8333 21.8982 44.4342 23.305 42.7083 23.305H30.2083C28.4825 23.305 27.0833 21.8982 27.0833 20.1607V7.58356C27.0833 5.84608 28.4825 4.43927 30.2083 4.43927H42.7083ZM19.7917 6.53546H7.29167C6.71608 6.53546 6.25 7.0041 6.25 7.58356V20.1607C6.25 20.7402 6.71608 21.2088 7.29167 21.2088H19.7917C20.3673 21.2088 20.8333 20.7402 20.8333 20.1607V7.58356C20.8333 7.0041 20.3673 6.53546 19.7917 6.53546ZM42.7083 6.53546H30.2083C29.6327 6.53546 29.1667 7.0041 29.1667 7.58356V20.1607C29.1667 20.7402 29.6327 21.2088 30.2083 21.2088H42.7083C43.2839 21.2088 43.75 20.7402 43.75 20.1607V7.58356C43.75 7.0041 43.2839 6.53546 42.7083 6.53546ZM38.5417 9.67975C39.6917 9.67975 40.625 10.6168 40.625 11.7759V15.9683C40.625 17.1275 39.6917 18.0645 38.5417 18.0645H34.375C33.225 18.0645 32.2917 17.1275 32.2917 15.9683V11.7759C32.2917 10.6168 33.225 9.67975 34.375 9.67975H38.5417ZM15.625 9.67975C16.775 9.67975 17.7083 10.6168 17.7083 11.7759V15.9683C17.7083 17.1275 16.775 18.0645 15.625 18.0645H11.4583C10.3083 18.0645 9.375 17.1275 9.375 15.9683V11.7759C9.375 10.6168 10.3083 9.67975 11.4583 9.67975H15.625Z"/>
</svg>
