<svg width="50" height="51" viewBox="0 0 50 51" fill="white" xmlns="../../../www.w3.org/2000/svg.html">
<path fill-rule="evenodd" clip-rule="evenodd" d="M44.7917 44.267C45.367 44.267 45.8333 44.7362 45.8333 45.3151C45.8333 45.8296 45.4648 46.2575 44.9789 46.3463L44.7917 46.3632H5.20834C4.63304 46.3632 4.16667 45.8939 4.16667 45.3151C4.16667 44.8005 4.53516 44.3726 5.0211 44.2839L5.20834 44.267H44.7917ZM9.375 27.4974C9.9503 27.4974 10.4167 27.9667 10.4167 28.5455V41.1227C10.4167 41.7015 9.9503 42.1708 9.375 42.1708C8.79971 42.1708 8.33334 41.7015 8.33334 41.1227V28.5455C8.33334 27.9667 8.79971 27.4974 9.375 27.4974ZM19.7917 23.305C20.367 23.305 20.8333 23.7743 20.8333 24.3531V41.1227C20.8333 41.7015 20.367 42.1708 19.7917 42.1708C19.2164 42.1708 18.75 41.7015 18.75 41.1227V24.3531C18.75 23.7743 19.2164 23.305 19.7917 23.305ZM30.2083 17.0165C30.7836 17.0165 31.25 17.4857 31.25 18.0646V41.1227C31.25 41.7015 30.7836 42.1708 30.2083 42.1708C29.633 42.1708 29.1667 41.7015 29.1667 41.1227V18.0646C29.1667 17.4857 29.633 17.0165 30.2083 17.0165ZM40.625 14.9203C41.2003 14.9203 41.6667 15.3895 41.6667 15.9684V41.1227C41.6667 41.7015 41.2003 42.1708 40.625 42.1708C40.0497 42.1708 39.5833 41.7015 39.5833 41.1227V15.9684C39.5833 15.3895 40.0497 14.9203 40.625 14.9203ZM45.6051 4.83266C45.9245 5.23445 45.9025 5.80022 45.5781 6.17495L45.4424 6.30583L35.0257 14.6906C34.7221 14.935 34.3137 14.9859 33.9655 14.836L33.7972 14.7442L28.2161 11.0006L19.442 18.8479C19.1101 19.1448 18.6344 19.1932 18.2552 18.987L18.0993 18.883L13.619 15.2766L5.94491 22.9981C5.53811 23.4074 4.87857 23.4074 4.47177 22.9981C4.11017 22.6342 4.06999 22.0695 4.35124 21.661L4.47177 21.5158L12.8051 13.1311C13.1335 12.8006 13.632 12.7338 14.0292 12.9458L14.1924 13.0538L18.7146 16.6939L27.433 8.89644C27.7364 8.62505 28.1631 8.5595 28.527 8.71278L28.7028 8.80772L34.3191 12.575L44.1409 4.66898C44.5902 4.30738 45.2457 4.38066 45.6051 4.83266Z"/>
</svg>
