<svg width="50" height="51" viewBox="0 0 50 51" fill="white" xmlns="../../../www.w3.org/2000/svg.html">
<path fill-rule="evenodd" clip-rule="evenodd" d="M37.7077 4.43927C38.3475 4.43927 38.8651 4.96013 38.8651 5.60382V9.0156H41.6162C43.922 9.0156 45.7983 10.9034 45.7983 13.2234V19.4002C45.8076 19.4596 45.8333 19.5129 45.8333 19.575C45.8333 19.6372 45.8076 19.6905 45.7983 19.7499V42.1303C45.7983 44.4503 43.922 46.3381 41.6162 46.3381H8.36452C6.05875 46.3381 4.18248 44.4503 4.18248 42.1303V19.6541C4.1805 19.6265 4.16666 19.603 4.16666 19.575C4.16666 19.547 4.1805 19.5236 4.18248 19.496V13.2234C4.18248 10.9034 6.05875 9.0156 8.36452 9.0156H11.1348V5.60382C11.1348 4.96013 11.6525 4.43927 12.2922 4.43927C12.932 4.43927 13.4497 4.96013 13.4497 5.60382V9.0156H36.5503V5.60382C36.5503 4.96013 37.068 4.43927 37.7077 4.43927ZM43.4835 20.7396H6.4973V42.1303C6.4973 43.1663 7.33483 44.009 8.36452 44.009H41.6162C42.6459 44.009 43.4835 43.1663 43.4835 42.1303V20.7396ZM32.0575 24.6495C32.418 24.1184 33.138 23.9808 33.6659 24.3458C34.1937 24.7086 34.3282 25.4342 33.9676 25.9641L24.3523 40.1025C24.1545 40.3937 23.8381 40.5779 23.4899 40.6063C23.4583 40.6086 23.4278 40.6098 23.3973 40.6098C23.0808 40.6098 22.7779 40.4801 22.5575 40.247L16.1476 33.4541C15.708 32.9879 15.7272 32.2509 16.1906 31.8074C16.6551 31.3661 17.3864 31.3855 17.8272 31.8506L23.2503 37.5983L32.0575 24.6495ZM11.1348 11.3447H8.36452C7.33483 11.3447 6.4973 12.1874 6.4973 13.2234V18.4105H43.4835V13.2234C43.4835 12.1874 42.6459 11.3447 41.6162 11.3447H38.8651V14.9168C38.8651 15.5605 38.3475 16.0814 37.7077 16.0814C37.068 16.0814 36.5503 15.5605 36.5503 14.9168V11.3447H13.4497V14.9168C13.4497 15.5605 12.932 16.0814 12.2922 16.0814C11.6525 16.0814 11.1348 15.5605 11.1348 14.9168V11.3447Z" />
</svg>
