<svg width="50" height="51" viewBox="0 0 50 51" fill="white" xmlns="../../../www.w3.org/2000/svg.html">
<path fill-rule="evenodd" clip-rule="evenodd" d="M28.125 7.58356C30.9959 7.58356 33.3334 9.93339 33.3334 12.824L33.3292 12.8785C37.9646 14.8217 41.1229 19.1776 41.5729 24.1896C42.8313 23.785 43.75 22.6091 43.75 21.2088C43.75 20.6303 44.2167 20.1607 44.7917 20.1607C45.3667 20.1607 45.8334 20.6303 45.8334 21.2088C45.8334 23.7578 44.0167 25.8812 41.6188 26.3487C41.2584 31.5934 37.9459 36.0331 33.3334 37.9763V42.1707C33.3334 42.7493 32.8667 43.2188 32.2917 43.2188C31.7167 43.2188 31.25 42.7493 31.25 42.1707V38.645C30.2459 38.886 29.2021 39.0265 28.125 39.0265H19.7917C18.7188 39.0265 17.6792 38.865 16.6667 38.6219V42.1707C16.6667 42.7493 16.2 43.2188 15.625 43.2188C15.05 43.2188 14.5834 42.7493 14.5834 42.1707V37.9784C14.5834 37.9679 14.5896 37.9574 14.5896 37.9469C11.3438 36.5844 8.67919 34.0082 7.3021 30.6417H5.20835C4.63335 30.6417 4.16669 30.1721 4.16669 29.5936V21.2088C4.16669 20.6303 4.63335 20.1607 5.20835 20.1607H7.30002C8.41252 17.4273 10.3813 15.155 12.925 13.6793C13.6875 11.8724 15.9125 7.58356 19.7917 7.58356C20.3667 7.58356 20.8334 8.0531 20.8334 8.63165V11.7759H23.0229C23.5063 9.38628 25.6104 7.58356 28.125 7.58356ZM18.75 9.86422C16.4417 10.6922 15.0125 14.0524 14.7188 14.8008C14.6292 15.0313 14.4604 15.2221 14.2438 15.3395C11.7834 16.6747 9.92294 18.882 9.00627 21.5505C8.86044 21.9739 8.4646 22.2569 8.02085 22.2569H6.25002V28.5455H8.02085C8.4646 28.5455 8.85835 28.8285 9.00419 29.2498C10.5917 33.8426 14.9271 36.9303 19.7917 36.9303H28.125C34.4438 36.9303 39.5834 31.7569 39.5834 25.4012C39.5834 20.865 36.9334 16.7837 32.8896 14.9307C32.8438 15.0376 32.7792 15.1361 32.725 15.2368C32.6771 15.3332 32.6313 15.4296 32.575 15.5218C32.4646 15.7042 32.3375 15.8761 32.2063 16.0438C32.1667 16.0941 32.1354 16.1507 32.0938 16.1989C31.9167 16.4064 31.725 16.5972 31.5188 16.7754C31.4479 16.8362 31.3709 16.8865 31.2959 16.9473C31.15 17.0604 31 17.1694 30.8438 17.268C30.7542 17.3225 30.6625 17.3728 30.5709 17.4231C30.4146 17.509 30.2521 17.5845 30.0875 17.6558C29.9917 17.6956 29.8959 17.7354 29.7979 17.769C29.6167 17.8339 29.4313 17.8822 29.2438 17.9262C29.1563 17.9429 29.0688 17.9702 28.9792 17.9849C28.7 18.0331 28.4146 18.0645 28.125 18.0645C27.7854 18.0645 27.4563 18.0247 27.1354 17.9639C27.0292 17.9429 26.9313 17.9073 26.8271 17.8801C26.6167 17.8256 26.4084 17.7648 26.2084 17.6851C26.0917 17.6411 25.9854 17.5845 25.8729 17.5279C25.6959 17.442 25.525 17.3518 25.3625 17.2491C25.2521 17.1799 25.1479 17.1045 25.0438 17.0269C24.8938 16.9137 24.75 16.7963 24.6104 16.6664C24.5167 16.5783 24.4229 16.4903 24.3354 16.3939C24.2042 16.2555 24.0875 16.1046 23.9709 15.9516C23.8959 15.8509 23.8188 15.7524 23.75 15.6476C23.6396 15.4736 23.5459 15.2871 23.4542 15.0984C23.4063 14.9978 23.35 14.9035 23.3084 14.8008C23.1938 14.5241 23.1042 14.2327 23.0396 13.9308C23.0354 13.9141 23.0271 13.8952 23.0229 13.8742L19.7917 13.8721C19.2167 13.8721 18.75 13.4026 18.75 12.824V9.86422ZM13.5417 20.1607C14.1167 20.1607 14.5834 20.6303 14.5834 21.2088V23.305C14.5834 23.8836 14.1167 24.3531 13.5417 24.3531C12.9667 24.3531 12.5 23.8836 12.5 23.305V21.2088C12.5 20.6303 12.9667 20.1607 13.5417 20.1607ZM32.2917 20.1607C32.8667 20.1607 33.3334 20.6303 33.3334 21.2088C33.3334 21.7874 32.8667 22.2569 32.2917 22.2569H23.9584C23.3834 22.2569 22.9167 21.7874 22.9167 21.2088C22.9167 20.6303 23.3834 20.1607 23.9584 20.1607H32.2917ZM28.125 9.67975C26.4021 9.67975 25 11.0905 25 12.824C25 14.5576 26.4021 15.9683 28.125 15.9683C29.6292 15.9683 30.95 14.8469 31.2021 13.3607C31.2354 13.1762 31.25 13.0085 31.25 12.824C31.25 11.0905 29.8479 9.67975 28.125 9.67975Z" />
</svg>
