<svg width="50" height="51" viewBox="0 0 50 51" fill="white" xmlns="../../../www.w3.org/2000/svg.html">
<path fill-rule="evenodd" clip-rule="evenodd" d="M41.7458 9.67975C44.0039 9.67975 45.8333 11.5214 45.8333 13.7925V17.0164C45.8333 17.5953 45.367 18.0645 44.7917 18.0645H40.625C40.0497 18.0645 39.5833 17.5953 39.5833 17.0164C39.5833 16.4376 40.0497 15.9683 40.625 15.9683H43.75V13.7925C43.75 12.6789 42.853 11.7759 41.7458 11.7759H37.5V40.0746C37.5 40.5891 37.1315 41.017 36.6456 41.1058L36.4583 41.1227H13.5417C12.9664 41.1227 12.5 40.6534 12.5 40.0746V11.7759H8.25417C7.22605 11.7759 6.37921 12.5545 6.26348 13.5573L6.25 13.7925V15.9683H9.375C9.9503 15.9683 10.4167 16.4376 10.4167 17.0164C10.4167 17.5953 9.9503 18.0645 9.375 18.0645H5.20833C4.63304 18.0645 4.16667 17.5953 4.16667 17.0164V13.7925C4.16667 11.5214 5.99615 9.67975 8.25417 9.67975H41.7458ZM35.4167 11.7759H14.5833V31.7051C18.4668 31.7051 21.6403 34.7687 21.8476 38.6254L21.8583 39.0271L28.1792 39.0273C28.1792 35.0058 31.4191 31.7451 35.4167 31.7451V11.7759ZM14.5833 33.8013V39.0265L19.775 39.0271C19.775 36.1412 17.45 33.8013 14.5833 33.8013ZM35.4167 33.8413C32.5698 33.8413 30.2625 36.1634 30.2625 39.0273L35.4167 39.0265V33.8413ZM27.5229 18.6064C29.2761 18.6064 30.347 19.8595 30.6304 21.7771L31.376 21.7769C31.9513 21.7769 32.4177 22.2461 32.4177 22.825C32.4177 23.4038 31.9513 23.8731 31.376 23.8731L30.6399 23.876C30.5499 24.5408 30.3717 25.1314 30.1249 25.6469C29.8895 26.1387 29.6367 26.4789 29.4326 26.6775C29.0191 27.08 28.3596 27.069 27.9596 26.6529C27.5596 26.2369 27.5706 25.5733 27.9841 25.1709C28.0191 25.1368 28.1248 24.9946 28.248 24.7373C28.4796 24.2535 28.6229 23.6341 28.6229 22.8596C28.6229 21.3606 28.1995 20.7026 27.5229 20.7026C27.0869 20.7026 26.7341 21.2039 26.0666 22.9012L25.9914 23.0924C24.9493 25.7406 24.1729 26.8067 22.3229 26.8067C20.7265 26.8067 19.6339 25.5359 19.358 23.8749L18.6246 23.8731C18.0493 23.8731 17.5829 23.4038 17.5829 22.825C17.5829 22.2461 18.0493 21.7769 18.6246 21.7769L19.4262 21.7774C19.5113 21.3768 19.6334 20.9798 19.7849 20.5895C19.9677 20.1184 20.153 19.7535 20.2878 19.5293C20.5855 19.0339 21.2259 18.8752 21.7182 19.1748C22.2105 19.4743 22.3682 20.1187 22.0705 20.614C21.9933 20.7425 21.8607 21.0034 21.7255 21.3518C21.504 21.9227 21.3729 22.5002 21.3729 23.0315C21.3729 24.0588 21.818 24.7105 22.3229 24.7105C22.9267 24.7105 23.3341 24.151 24.0544 22.3207L24.1294 22.1299C25.1321 19.5805 25.8175 18.6064 27.5229 18.6064Z" />
</svg>
