<svg width="50" height="51" viewBox="0 0 50 51" fill="white" xmlns="../../../www.w3.org/2000/svg.html">
<path fill-rule="evenodd" clip-rule="evenodd" d="M25.0783 4.43927C27.3326 4.43927 29.1667 6.2847 29.1667 8.55285V9.68999C29.1667 10.2693 28.7008 10.7381 28.125 10.7381C27.5492 10.7381 27.0833 10.2693 27.0833 9.68999V8.55285C27.0833 7.44027 26.1841 6.53546 25.0783 6.53546H8.25501C7.14926 6.53546 6.25001 7.44027 6.25001 8.55285V42.2496C6.25001 43.3621 7.14926 44.2669 8.25501 44.2669H25.0783C26.1841 44.2669 27.0833 43.3621 27.0833 42.2496V39.0285C27.0833 38.4492 27.5492 37.9804 28.125 37.9804C28.7008 37.9804 29.1667 38.4492 29.1667 39.0285V42.2496C29.1667 44.5177 27.3326 46.3631 25.0783 46.3631H8.25501C6.00078 46.3631 4.16667 44.5177 4.16667 42.2496V8.55285C4.16667 6.2847 6.00078 4.43927 8.25501 4.43927H25.0783ZM17.7083 40.0746C18.2841 40.0746 18.75 40.5433 18.75 41.1227C18.75 41.702 18.2841 42.1708 17.7083 42.1708H15.625C15.0492 42.1708 14.5833 41.702 14.5833 41.1227C14.5833 40.5433 15.0492 40.0746 15.625 40.0746H17.7083ZM41.7501 14.9202C44.0013 14.9202 45.8333 16.7636 45.8333 19.0287V27.5762C45.8333 29.8444 43.9992 31.6898 41.745 31.6898H28.5563L22.6115 37.6713C22.4121 37.8719 22.1456 37.9784 21.875 37.9784C21.7407 37.9784 21.6054 37.9528 21.4762 37.8985C21.0866 37.7368 20.8333 37.354 20.8333 36.9303L20.755 31.6898C18.5008 31.6898 16.6667 29.8444 16.6667 27.5762V19.0338C16.6667 16.7657 18.5008 14.9202 20.755 14.9202H41.7501ZM41.7501 17.0164H20.755C19.6493 17.0164 18.75 17.9212 18.75 19.0338V27.5762C18.75 28.6888 19.6493 29.5936 20.755 29.5936H21.875C22.4508 29.5936 22.9167 30.0624 22.9167 30.6417V34.4001L27.3885 29.9007C27.5838 29.7041 27.8483 29.5936 28.125 29.5936H41.745C42.8508 29.5936 43.75 28.6888 43.75 27.5762V19.0287C43.75 17.9192 42.8528 17.0164 41.7501 17.0164ZM26.0417 23.305C26.6174 23.305 27.0833 23.7738 27.0833 24.3531C27.0833 24.9324 26.6174 25.4012 26.0417 25.4012H23.9583C23.3826 25.4012 22.9167 24.9324 22.9167 24.3531C22.9167 23.7738 23.3826 23.305 23.9583 23.305H26.0417ZM38.5417 23.305C39.1174 23.305 39.5833 23.7738 39.5833 24.3531C39.5833 24.9324 39.1174 25.4012 38.5417 25.4012H36.4583C35.8826 25.4012 35.4167 24.9324 35.4167 24.3531C35.4167 23.7738 35.8826 23.305 36.4583 23.305H38.5417ZM32.2917 23.305C32.8674 23.305 33.3333 23.7738 33.3333 24.3531C33.3333 24.9324 32.8674 25.4012 32.2917 25.4012H30.2083C29.6326 25.4012 29.1667 24.9324 29.1667 24.3531C29.1667 23.7738 29.6326 23.305 30.2083 23.305H32.2917ZM19.7917 8.63166C20.3674 8.63166 20.8333 9.10043 20.8333 9.67975C20.8333 10.2591 20.3674 10.7279 19.7917 10.7279H13.5417C12.9659 10.7279 12.5 10.2591 12.5 9.67975C12.5 9.10043 12.9659 8.63166 13.5417 8.63166H19.7917Z" />
</svg>
