<svg width="32" height="32" viewBox="0 0 32 32" fill="none" xmlns="../../../www.w3.org/2000/svg.html">
<path fill-rule="evenodd" clip-rule="evenodd" d="M19.0272 2.76124C19.191 2.66754 19.3846 2.64255 19.5665 2.69044C19.7483 2.73903 19.9038 2.85842 19.9982 3.02154L21.7453 6.04866H25.2402C25.6331 6.04866 25.951 6.36657 25.951 6.75945V10.2544L28.9781 12.0015C29.1412 12.0959 29.2606 12.2514 29.3092 12.4333C29.3578 12.6152 29.3328 12.8095 29.2384 12.9726L27.4899 15.9998L29.2384 19.0269C29.3328 19.19 29.3578 19.3843 29.3092 19.5662C29.2606 19.7481 29.1412 19.9036 28.9781 19.998L25.951 21.7451V25.2401C25.951 25.6329 25.6331 25.9508 25.2402 25.9508H21.7453L19.9982 28.978C19.9038 29.1411 19.7483 29.2605 19.5665 29.3091C19.5061 29.325 19.4443 29.3334 19.3825 29.3334C19.259 29.3334 19.1361 29.3007 19.0272 29.2383L16.0001 27.4897L12.973 29.2383C12.8092 29.3313 12.6148 29.3556 12.4337 29.3091C12.2518 29.2605 12.0963 29.1411 12.0019 28.978L10.2548 25.9508H6.75992C6.36704 25.9508 6.04913 25.6329 6.04913 25.2401V21.7451L3.02206 19.998C2.85894 19.9036 2.73955 19.7481 2.69097 19.5662C2.64238 19.3843 2.66737 19.19 2.76176 19.0269L4.51026 15.9998L2.76176 12.9726C2.66737 12.8095 2.64238 12.6152 2.69097 12.4333C2.73955 12.2514 2.85894 12.0959 3.02206 12.0015L6.04913 10.2544V6.75945C6.04913 6.36657 6.36704 6.04866 6.75992 6.04866H10.2548L12.0019 3.02154C12.0963 2.85842 12.2518 2.73903 12.4337 2.69044C12.6148 2.64255 12.8092 2.66754 12.973 2.76124L16.0001 4.50977L19.0272 2.76124ZM19.1222 4.34803L16.3555 5.94593C16.1361 6.07226 15.864 6.07226 15.6447 5.94593L12.8779 4.34803L11.2807 7.11485C11.1537 7.33489 10.9191 7.47024 10.6651 7.47024H7.4707V10.6646C7.4707 10.9187 7.33534 11.1533 7.11531 11.2803L4.34853 12.8775L5.9464 15.6444C6.07343 15.8644 6.07343 16.1351 5.9464 16.3551L4.34853 19.122L7.11531 20.7192C7.33534 20.8462 7.4707 21.0808 7.4707 21.3349V24.5293H10.6651C10.9191 24.5293 11.1537 24.6646 11.2807 24.8847L12.8779 27.6515L15.6447 26.0536C15.7544 25.9904 15.8772 25.9585 16.0001 25.9585C16.1229 25.9585 16.2458 25.9904 16.3555 26.0536L19.1222 27.6515L20.7194 24.8847C20.8465 24.6646 21.0811 24.5293 21.3351 24.5293H24.5295V21.3349C24.5295 21.0808 24.6648 20.8462 24.8849 20.7192L27.6516 19.122L26.0538 16.3551C25.9267 16.1351 25.9267 15.8644 26.0538 15.6444L27.6516 12.8775L24.8849 11.2803C24.6648 11.1533 24.5295 10.9187 24.5295 10.6646V7.47024H21.3351C21.0811 7.47024 20.8465 7.33489 20.7194 7.11485L19.1222 4.34803ZM20.2648 15.9998C21.8328 15.9998 23.1079 17.2749 23.1079 18.8429V20.2645C23.1079 21.8326 21.8328 23.1077 20.2648 23.1077C18.6968 23.1077 17.4216 21.8326 17.4216 20.2645V18.8429C17.4216 17.2749 18.6968 15.9998 20.2648 15.9998ZM20.473 10.5217C20.7507 10.244 21.2005 10.244 21.4781 10.5217C21.7558 10.7993 21.7558 11.2491 21.4781 11.5268L11.5272 21.4778C11.3883 21.6167 11.2065 21.6861 11.0246 21.6861C10.8427 21.6861 10.6609 21.6167 10.5221 21.4778C10.2444 21.2002 10.2444 20.7504 10.5221 20.4727L20.473 10.5217ZM20.2648 17.4213C19.4811 17.4213 18.8432 18.0592 18.8432 18.8429V20.2645C18.8432 21.0482 19.4811 21.6861 20.2648 21.6861C21.0484 21.6861 21.6863 21.0482 21.6863 20.2645V18.8429C21.6863 18.0592 21.0484 17.4213 20.2648 17.4213ZM11.7354 8.89183C13.3034 8.89183 14.5785 10.167 14.5785 11.735V13.1566C14.5785 14.7246 13.3034 15.9998 11.7354 15.9998C10.1674 15.9998 8.89226 14.7246 8.89226 13.1566V11.735C8.89226 10.167 10.1674 8.89183 11.7354 8.89183ZM11.7354 10.3134C10.9517 10.3134 10.3138 10.9513 10.3138 11.735V13.1566C10.3138 13.9403 10.9517 14.5782 11.7354 14.5782C12.5191 14.5782 13.157 13.9403 13.157 13.1566V11.735C13.157 10.9513 12.5191 10.3134 11.7354 10.3134Z" fill="white"/>
</svg>
