<svg width="32" height="32" viewBox="0 0 32 32" fill="none" xmlns="../../../www.w3.org/2000/svg.html">
<path fill-rule="evenodd" clip-rule="evenodd" d="M19.027 2.76124C19.1908 2.66754 19.3845 2.64255 19.5664 2.69044C19.7482 2.73903 19.9037 2.85842 19.9981 3.02154L21.7452 6.04866H25.2401C25.633 6.04866 25.9509 6.36657 25.9509 6.75945V10.2544L28.978 12.0015C29.1411 12.0959 29.2605 12.2514 29.3091 12.4333C29.3577 12.6152 29.3327 12.8095 29.2383 12.9726L27.4898 15.9998L29.2383 19.0269C29.3327 19.19 29.3577 19.3843 29.3091 19.5662C29.2605 19.7481 29.1411 19.9036 28.978 19.998L25.9509 21.7451V25.2401C25.9509 25.6329 25.633 25.9508 25.2401 25.9508H21.7452L19.9981 28.978C19.9037 29.1411 19.7482 29.2605 19.5664 29.3091C19.506 29.325 19.4442 29.3334 19.3824 29.3334C19.2589 29.3334 19.136 29.3007 19.027 29.2383L16 27.4897L12.9729 29.2383C12.8091 29.3313 12.6147 29.3556 12.4336 29.3091C12.2517 29.2605 12.0962 29.1411 12.0018 28.978L10.2547 25.9508H6.75979C6.36692 25.9508 6.04901 25.6329 6.04901 25.2401V21.7451L3.02194 19.998C2.85882 19.9036 2.73943 19.7481 2.69084 19.5662C2.64226 19.3843 2.66724 19.19 2.76164 19.0269L4.51014 15.9998L2.76164 12.9726C2.66724 12.8095 2.64225 12.6152 2.69084 12.4333C2.73943 12.2514 2.85882 12.0959 3.02194 12.0015L6.04901 10.2544V6.75945C6.04901 6.36657 6.36692 6.04866 6.75979 6.04866H10.2547L12.0018 3.02154C12.0962 2.85842 12.2517 2.73903 12.4336 2.69044C12.6147 2.64255 12.8091 2.66754 12.9729 2.76124L16 4.50977L19.027 2.76124ZM19.1221 4.34803L16.3554 5.94593C16.136 6.07226 15.8639 6.07226 15.6446 5.94593L12.8778 4.34803L11.2806 7.11485C11.1536 7.33489 10.919 7.47024 10.6649 7.47024H7.47058V10.6646C7.47058 10.9187 7.33522 11.1533 7.11518 11.2803L4.34841 12.8775L5.94628 15.6444C6.07331 15.8644 6.07331 16.1351 5.94628 16.3551L4.34841 19.122L7.11518 20.7192C7.33522 20.8462 7.47058 21.0808 7.47058 21.3349V24.5293H10.6649C10.919 24.5293 11.1536 24.6646 11.2806 24.8847L12.8778 27.6515L15.6446 26.0536C15.7542 25.9904 15.8771 25.9585 16 25.9585C16.1228 25.9585 16.2457 25.9904 16.3554 26.0536L19.1221 27.6515L20.7193 24.8847C20.8463 24.6646 21.0809 24.5293 21.335 24.5293H24.5293V21.3349C24.5293 21.0808 24.6647 20.8462 24.8847 20.7192L27.6515 19.122L26.0536 16.3551C25.9266 16.1351 25.9266 15.8644 26.0536 15.6444L27.6515 12.8775L24.8847 11.2803C24.6647 11.1533 24.5293 10.9187 24.5293 10.6646V7.47024H21.335C21.0809 7.47024 20.8463 7.33489 20.7193 7.11485L19.1221 4.34803ZM20.2647 15.9998C21.8327 15.9998 23.1078 17.2749 23.1078 18.8429V20.2645C23.1078 21.8326 21.8327 23.1077 20.2647 23.1077C18.6966 23.1077 17.4215 21.8326 17.4215 20.2645V18.8429C17.4215 17.2749 18.6966 15.9998 20.2647 15.9998ZM20.4729 10.5217C20.7505 10.244 21.2003 10.244 21.478 10.5217C21.7556 10.7993 21.7556 11.2491 21.478 11.5268L11.527 21.4778C11.3882 21.6167 11.2063 21.6861 11.0245 21.6861C10.8426 21.6861 10.6608 21.6167 10.5219 21.4778C10.2443 21.2002 10.2443 20.7504 10.5219 20.4727L20.4729 10.5217ZM20.2647 17.4213C19.481 17.4213 18.8431 18.0592 18.8431 18.8429V20.2645C18.8431 21.0482 19.481 21.6861 20.2647 21.6861C21.0483 21.6861 21.6862 21.0482 21.6862 20.2645V18.8429C21.6862 18.0592 21.0483 17.4213 20.2647 17.4213ZM11.7353 8.89183C13.3033 8.89183 14.5784 10.167 14.5784 11.735V13.1566C14.5784 14.7246 13.3033 15.9998 11.7353 15.9998C10.1672 15.9998 8.89214 14.7246 8.89214 13.1566V11.735C8.89214 10.167 10.1672 8.89183 11.7353 8.89183ZM11.7353 10.3134C10.9516 10.3134 10.3137 10.9513 10.3137 11.735V13.1566C10.3137 13.9403 10.9516 14.5782 11.7353 14.5782C12.5189 14.5782 13.1568 13.9403 13.1568 13.1566V11.735C13.1568 10.9513 12.5189 10.3134 11.7353 10.3134Z" fill="#EC0000"/>
</svg>
