<svg id="Icons" xmlns="http://www.w3.org/2000/svg" xmlns:xlink="http://www.w3.org/1999/xlink" viewBox="0 0 211.2 211.2"><defs><style>.cls-1,.cls-2{fill:none;}.cls-2{stroke:#000;stroke-miterlimit:10;stroke-width:0.25px;}.cls-3{clip-path:url(#clip-path);}.cls-4{clip-path:url(#clip-path-2);}.cls-5{clip-path:url(#clip-path-3);}.cls-6{clip-path:url(#clip-path-4);}.cls-7{fill:#ec0000;}.cls-8{clip-path:url(#clip-path-5);}</style><clipPath id="clip-path"><path class="cls-1" d="M-525.17,741l4.26-4.4a9.89,9.89,0,0,1,14-.24l9.59,9.28a9.91,9.91,0,0,1,.24,14l-6.17,6.33a17.79,17.79,0,0,1-25.18.32l-.18-.17-39.69-39.77a17.83,17.83,0,0,1,0-25.2l6.11-6.1a9.89,9.89,0,0,1,14,0l9.51,9.51a9.89,9.89,0,0,1,.06,13.94l-4.47,4.55Zm-22.12-16.54a2,2,0,0,1,0-2.79l5.85-5.95a5.94,5.94,0,0,0,0-8.36l-9.51-9.51a5.94,5.94,0,0,0-8.4,0l-6.1,6.1a13.86,13.86,0,0,0,0,19.6l39.69,39.78a13.89,13.89,0,0,0,19.72-.12l6.14-6.31a6,6,0,0,0-.12-8.42l-9.59-9.27a5.94,5.94,0,0,0-8.4.14l-5.66,5.85a2,2,0,0,1-2.82,0Z"/></clipPath><clipPath id="clip-path-2"><path class="cls-1" d="M-515.92,1077.4a2.2,2.2,0,0,1,2.2-2.2,2.19,2.19,0,0,1,2.2,2.2c0,13.24-9.74,23.83-22,23.83a2.21,2.21,0,0,1-2.2-2.2,2.2,2.2,0,0,1,2.2-2.2C-523.78,1096.83-515.92,1088.29-515.92,1077.4Zm17.6-5.26v0c0,21.67-15.6,38.94-35.2,38.94s-35.2-17.27-35.2-38.94v0c0-5.47,1.76-11.83,5-18.94a127.4,127.4,0,0,1,9.12-16.42c3-4.7,6.28-9.26,9.54-13.48,1.13-1.48,2.19-2.82,3.14-4,.57-.7,1-1.2,1.18-1.42a9.38,9.38,0,0,1,7.28-3.52,9.36,9.36,0,0,1,7.24,3.48c.22.27.64.76,1.21,1.46.95,1.17,2,2.51,3.14,4,3.25,4.22,6.5,8.78,9.53,13.49a126.52,126.52,0,0,1,9.11,16.41C-500.07,1060.31-498.32,1066.67-498.32,1072.14Zm-4.4,0c0-4.74-1.59-10.54-4.56-17.13a124,124,0,0,0-8.79-15.84c-3-4.6-6.15-9.06-9.33-13.19-1.11-1.45-2.14-2.75-3.06-3.89l-1.18-1.43a5,5,0,0,0-3.86-1.89,5,5,0,0,0-3.9,1.93l-1.15,1.39c-.92,1.14-2,2.44-3.07,3.89-3.18,4.13-6.36,8.59-9.33,13.19a125.41,125.41,0,0,0-8.8,15.84c-3,6.59-4.57,12.39-4.57,17.13h0c0,19.33,13.74,34.54,30.8,34.54s30.8-15.21,30.8-34.54v0Z"/></clipPath><clipPath id="clip-path-3"><path class="cls-2" d="M-568.66,1732.74h70.29v5.86a8.74,8.74,0,0,1-8.79,8.79h-52.72a8.74,8.74,0,0,1-8.78-8.79Zm0-90.8h70.29v87.87h-70.29Zm8.78-14.64h52.72a8.73,8.73,0,0,1,8.79,8.78V1639h-70.29v-2.93A8.73,8.73,0,0,1-559.88,1627.3Zm0-2.93a11.72,11.72,0,0,0-11.71,11.71V1738.6a11.72,11.72,0,0,0,11.71,11.71h52.72a11.72,11.72,0,0,0,11.72-11.71V1636.08a11.72,11.72,0,0,0-11.72-11.71Z"/></clipPath><clipPath id="clip-path-4"><path class="cls-1" d="M-508.34,92.64a3,3,0,0,1,5.84-.86l1.3,3.49c.55,1.48,1,2.74,1.44,4a107.36,107.36,0,0,1,3.35,11.19c1.56,6.7,1.88,12.33.62,16.89-4.21,15.18-16.44,24.78-36.79,24.78-21.36,0-34.77-9.89-38.52-26.51-3-13.5,1.78-27.18,9.87-39a3,3,0,0,1,5.47,2c-.62,5.43.75,9.67,3.37,12.92,1.67-23.67,14.83-35.79,31.59-39.9A3.54,3.54,0,0,1-516.89,67c-5.71,9.57-2.11,35.45,4.15,40.5C-510.18,105.23-508.72,99.56-508.34,92.64Zm-58.34,32c3.26,14.47,14.78,23,34.1,23,18.28,0,28.75-8.21,32.42-21.46,1-3.69.74-8.63-.66-14.66A102.66,102.66,0,0,0-504,100.76c-.16-.45-.32-.9-.48-1.37-.93,5.42-2.73,9.63-5.82,11.92a4.05,4.05,0,0,1-4.77,0c-8-5.67-12.15-32-6.7-44.67-14.26,4.22-25,15.2-26.14,36.39a4,4,0,0,1-7,2.49,20.2,20.2,0,0,1-5.35-11.9C-566,103.42-569,114.26-566.68,124.63Z"/></clipPath><clipPath id="clip-path-5"><path class="cls-1" d="M88.13,443.58V450a26.15,26.15,0,0,0,25.75,26.26A25.24,25.24,0,0,0,132,469,25.54,25.54,0,0,0,139.57,451V424.62a11.68,11.68,0,1,1,6.83-.66,12.19,12.19,0,0,1-2.16.66V451a30.06,30.06,0,0,1-30.42,30A30.83,30.83,0,0,1,83.45,450v-6.45A25.72,25.72,0,0,1,60.07,418V389.82a2.34,2.34,0,0,1,2.34-2.34h9.35a2.34,2.34,0,0,1,0,4.68h-7V418a21,21,0,0,0,42.08,0V392.16h-7a2.34,2.34,0,0,1,0-4.68h9.31a2.34,2.34,0,0,1,2.34,2.34V418A25.72,25.72,0,0,1,88.13,443.58Zm60.79-30.44a7,7,0,1,0-4.32,6.5A7,7,0,0,0,148.92,413.14Z"/></clipPath></defs><title>Stroke_Home 88px copy 12 copia 2</title><rect class="cls-1" x="-1921.26" y="-1546.95" width="2795.12" height="3953.92"/><rect class="cls-1" x="-1921.26" y="-2123.95" width="2795.12" height="3953.92"/><g class="cls-5"><rect class="cls-2" x="-1713.89" y="-2309.24" width="6048.33" height="6039.55"/></g><path class="cls-2" d="M-568.66,1732.74h70.29v5.86a8.74,8.74,0,0,1-8.79,8.79h-52.72a8.74,8.74,0,0,1-8.78-8.79Zm0-90.8h70.29v87.87h-70.29Zm8.78-14.64h52.72a8.73,8.73,0,0,1,8.79,8.78V1639h-70.29v-2.93A8.73,8.73,0,0,1-559.88,1627.3Zm0-2.93a11.72,11.72,0,0,0-11.71,11.71V1738.6a11.72,11.72,0,0,0,11.71,11.71h52.72a11.72,11.72,0,0,0,11.72-11.71V1636.08a11.72,11.72,0,0,0-11.72-11.71Z"/><rect class="cls-1" x="-1921.26" y="-1825.95" width="2795.12" height="3953.92"/><rect class="cls-1" x="-2560.37" y="-1546.95" width="2795.12" height="3953.92"/><rect class="cls-1" x="-2560.37" y="-2123.95" width="2795.12" height="3953.92"/><rect class="cls-1" x="-2560.37" y="-1825.95" width="2795.12" height="3953.92"/><path class="cls-7" d="M142.45,107.78c3.8,3.8,9.9-1.6,6.4-5.7a1.38,1.38,0,0,1-.3-.4l-38.9-38.8a5.67,5.67,0,0,0-8,0l-15.2,15.2V67.68a1.58,1.58,0,0,0-1.6-1.6h-9.4a1.58,1.58,0,0,0-1.6,1.6v23.1l-11,11a1.38,1.38,0,0,0-.3.4c-3.5,4.1,2.6,9.5,6.4,5.7l31.3-31.3a8,8,0,0,1,6.4-2.3,8.16,8.16,0,0,1,4.9,2.4Z"/><circle class="cls-7" cx="91.55" cy="109.68" r="5.7"/><path class="cls-7" d="M98.85,119.58a5.64,5.64,0,0,0-4.9-2.9h-4.7a5.52,5.52,0,0,0-4.9,2.9l-5.3,9.9a2.48,2.48,0,0,0,1,3.4,2.66,2.66,0,0,0,1.2.3,2.48,2.48,0,0,0,2.2-1.3l3.1-5.9-2.5,25.9a2.86,2.86,0,0,0,2.6,3.2H87a2.86,2.86,0,0,0,2.9-2.7l1.6-16.7,1.6,16.7a2.94,2.94,0,0,0,2.9,2.7h.3a2.91,2.91,0,0,0,2.6-3.2L96.35,126l3.1,5.9a2.51,2.51,0,1,0,4.4-2.4Z"/><circle class="cls-7" cx="119.75" cy="109.68" r="5.7"/><path class="cls-7" d="M127,119.58a5.64,5.64,0,0,0-4.9-2.9h-4.7a5.52,5.52,0,0,0-4.9,2.9l-5.3,9.9a2.51,2.51,0,1,0,4.4,2.4l3.3-6.1-.4,3.8a5.66,5.66,0,0,1-.8,2.5l-4,7.5a2,2,0,0,0,1.7,3h1.9l-.9,9.4a2.81,2.81,0,0,0,2.5,3.1h.3a2.82,2.82,0,0,0,2.8-2.6l1-10h1.5l1,10a2.82,2.82,0,0,0,2.8,2.6h.3a2.75,2.75,0,0,0,2.5-3.1l-.9-9.4h1.9a2,2,0,0,0,1.7-3l-4.1-7.4a7.32,7.32,0,0,1-.8-2.5l-.4-3.8,3.3,6.1a2.61,2.61,0,0,0,2.2,1.3,2.66,2.66,0,0,0,1.2-.3,2.5,2.5,0,0,0,1-3.4Z"/><circle class="cls-7" cx="143.35" cy="119.78" r="4.9"/><path class="cls-7" d="M153,135.58l-4.1-7.6a4.18,4.18,0,0,0-3.8-2.2h-3.6a4.5,4.5,0,0,0-3.8,2.2l-4.1,7.6a2,2,0,0,0,.8,2.6,1.49,1.49,0,0,0,.9.2,1.94,1.94,0,0,0,1.7-1l2.4-4.5-1.7,19.8a2.39,2.39,0,0,0,2,2.5h.2a2.26,2.26,0,0,0,2.2-2l1.2-12.8,1.2,12.8a2.18,2.18,0,0,0,2.2,2h.2a2.27,2.27,0,0,0,2-2.5l-1.9-19.8,2.4,4.5a2,2,0,0,0,2.6.8A1.88,1.88,0,0,0,153,135.58Z"/><circle class="cls-7" cx="67.95" cy="119.78" r="4.9"/><path class="cls-7" d="M73.55,128a4.18,4.18,0,0,0-3.8-2.2h-3.6a4.5,4.5,0,0,0-3.8,2.2l-4.1,7.6a1.92,1.92,0,0,0,3.4,1.8l2.5-4.7-.3,2.9a6,6,0,0,1-.6,1.9l-3,5.7a1.55,1.55,0,0,0,1.3,2.3H63l-.7,7.2a2.29,2.29,0,0,0,1.9,2.4h.2a2.25,2.25,0,0,0,2.2-2l.7-7.6h1.2l.7,7.6a2.26,2.26,0,0,0,2.2,2h.2a2.09,2.09,0,0,0,1.9-2.4l-.7-7.2h1.4a1.5,1.5,0,0,0,1.3-2.3l-3.1-5.7a6,6,0,0,1-.6-1.9l-.1-2.9,2.5,4.7a1.94,1.94,0,0,0,1.7,1,2.92,2.92,0,0,0,.9-.2,2,2,0,0,0,.8-2.6Z"/></svg>