<svg id="Icons" xmlns="http://www.w3.org/2000/svg" xmlns:xlink="http://www.w3.org/1999/xlink" viewBox="0 0 211.2 211.2"><defs><style>.cls-1,.cls-2,.cls-3{fill:none;}.cls-2{stroke:#eb0000;}.cls-2,.cls-3{stroke-miterlimit:10;}.cls-3{stroke:#000;stroke-width:0.25px;}.cls-4{clip-path:url(#clip-path);}.cls-5{clip-path:url(#clip-path-2);}.cls-6{clip-path:url(#clip-path-3);}.cls-7{clip-path:url(#clip-path-4);}.cls-8{clip-path:url(#clip-path-5);}.cls-9{clip-path:url(#clip-path-6);}.cls-10{fill:#ec0000;}.cls-11{fill:#fff;}</style><clipPath id="clip-path"><path class="cls-1" d="M-525.17-198.1l4.26-4.41a9.89,9.89,0,0,1,14-.23l9.59,9.27a9.91,9.91,0,0,1,.24,14l-6.17,6.34a17.8,17.8,0,0,1-25.18.32l-.18-.17-39.69-39.78a17.83,17.83,0,0,1,0-25.2l6.11-6.1a9.88,9.88,0,0,1,14,0l9.51,9.5a9.9,9.9,0,0,1,.06,14l-4.47,4.54Zm-22.12-16.55a2,2,0,0,1,0-2.79l5.85-5.94a6,6,0,0,0,0-8.37l-9.51-9.5a5.94,5.94,0,0,0-8.4,0l-6.1,6.09a13.88,13.88,0,0,0,0,19.61l39.69,39.77a13.88,13.88,0,0,0,19.72-.12l6.14-6.3a6,6,0,0,0-.12-8.42l-9.59-9.27a5.94,5.94,0,0,0-8.4.14l-5.66,5.85a2,2,0,0,1-2.82,0Z"/></clipPath><clipPath id="clip-path-2"><path class="cls-1" d="M-515.92,138.28a2.21,2.21,0,0,1,2.2-2.2,2.2,2.2,0,0,1,2.2,2.2c0,13.25-9.74,23.83-22,23.83a2.2,2.2,0,0,1-2.2-2.2,2.21,2.21,0,0,1,2.2-2.2C-523.78,157.71-515.92,149.17-515.92,138.28Zm17.6-5.26v0c0,21.67-15.6,39-35.2,39s-35.2-17.28-35.2-39v0c0-5.46,1.76-11.82,5-18.93a127.4,127.4,0,0,1,9.12-16.42c3-4.71,6.28-9.26,9.54-13.49,1.13-1.48,2.19-2.81,3.14-4,.57-.71,1-1.2,1.18-1.43a9.4,9.4,0,0,1,7.28-3.51,9.36,9.36,0,0,1,7.24,3.48c.22.26.64.76,1.21,1.46.95,1.17,2,2.5,3.14,4,3.25,4.23,6.5,8.78,9.53,13.49a127.26,127.26,0,0,1,9.11,16.42C-500.07,121.2-498.32,127.56-498.32,133Zm-4.4,0c0-4.74-1.59-10.53-4.56-17.13a124,124,0,0,0-8.79-15.84c-3-4.6-6.15-9-9.33-13.19-1.11-1.44-2.14-2.75-3.06-3.88l-1.18-1.43a5,5,0,0,0-3.86-1.89,5,5,0,0,0-3.9,1.93L-538.55,83c-.92,1.13-2,2.44-3.07,3.88-3.18,4.14-6.36,8.6-9.33,13.19a124.81,124.81,0,0,0-8.8,15.85c-3,6.59-4.57,12.38-4.57,17.12h0c0,19.34,13.74,34.55,30.8,34.55s30.8-15.21,30.8-34.55v0Z"/></clipPath><clipPath id="clip-path-3"><path class="cls-3" d="M-568.66,793.63h70.29v5.85a8.73,8.73,0,0,1-8.79,8.79h-52.72a8.73,8.73,0,0,1-8.78-8.79Zm0-90.8h70.29V790.7h-70.29Zm8.78-14.65h52.72a8.74,8.74,0,0,1,8.79,8.79v2.93h-70.29V697A8.74,8.74,0,0,1-559.88,688.18Zm0-2.93A11.72,11.72,0,0,0-571.59,697V799.48a11.72,11.72,0,0,0,11.71,11.72h52.72a11.72,11.72,0,0,0,11.72-11.72V697a11.72,11.72,0,0,0-11.72-11.72Z"/></clipPath><clipPath id="clip-path-4"><path class="cls-1" d="M-508.34-846.48a3,3,0,0,1,5.84-.86c.16.42,1,2.78,1.3,3.5.55,1.48,1,2.74,1.44,4a108.82,108.82,0,0,1,3.35,11.19c1.56,6.7,1.88,12.33.62,16.89C-500-796.58-512.23-787-532.58-787c-21.36,0-34.77-9.9-38.52-26.51-3-13.5,1.78-27.18,9.87-39a3,3,0,0,1,5.47,2.05c-.62,5.43.75,9.68,3.37,12.93,1.67-23.67,14.83-35.79,31.59-39.91a3.55,3.55,0,0,1,3.91,5.25c-5.71,9.56-2.11,35.44,4.15,40.5C-510.18-833.88-508.72-839.56-508.34-846.48Zm-58.34,32c3.26,14.48,14.78,23,34.1,23,18.28,0,28.75-8.21,32.42-21.47,1-3.68.74-8.62-.66-14.65A101.25,101.25,0,0,0-504-838.35l-.48-1.37c-.93,5.41-2.73,9.63-5.82,11.92a4.08,4.08,0,0,1-4.77,0c-8-5.68-12.15-32-6.7-44.68-14.26,4.22-25,15.21-26.14,36.4a4,4,0,0,1-7,2.49,20.2,20.2,0,0,1-5.35-11.91C-566-835.69-569-824.86-566.68-814.49Z"/></clipPath><clipPath id="clip-path-5"><path class="cls-2" d="M-515,1334.86a2,2,0,0,1,.48,2.78,2,2,0,0,1-2.78.48,28.16,28.16,0,0,0-32.45,0,2,2,0,0,1-2.78-.48,2,2,0,0,1,.48-2.78A32.12,32.12,0,0,1-515,1334.86Zm12.18-13.64a2,2,0,0,1,.48,2.78,2,2,0,0,1-2.78.48,49.26,49.26,0,0,0-56.81,0,2,2,0,0,1-2.78-.48,2,2,0,0,1,.48-2.78A53.22,53.22,0,0,1-502.81,1321.22Zm12.38-14a2,2,0,0,1,.48,2.78,2,2,0,0,1-2.79.48,70.61,70.61,0,0,0-81.56,0,2,2,0,0,1-2.78-.48,2,2,0,0,1,.48-2.78A74.59,74.59,0,0,1-490.43,1307.22Zm-43.09,46.18a4,4,0,0,0,4-4,4,4,0,0,0-4-4,4,4,0,0,0-4,4A4,4,0,0,0-533.52,1353.4Zm0,4a8,8,0,0,1-8-8,8,8,0,0,1,8-8,8,8,0,0,1,8,8A8,8,0,0,1-533.52,1357.39Z"/></clipPath><clipPath id="clip-path-6"><path class="cls-1" d="M88.13-495.53v6.45a26.15,26.15,0,0,0,25.75,26.26A25.24,25.24,0,0,0,132-470.1a25.56,25.56,0,0,0,7.59-18.06v-26.33a11.68,11.68,0,0,1-5.93-3.19,11.69,11.69,0,0,1-2.53-12.76,11.68,11.68,0,0,1,10.83-7.2A11.65,11.65,0,0,1,153.59-526a11.67,11.67,0,0,1-7.19,10.83,11.45,11.45,0,0,1-2.16.67v26.34a30.21,30.21,0,0,1-9,21.38,29.93,29.93,0,0,1-21.44,8.63,30.84,30.84,0,0,1-30.37-30.94v-6.45a25.72,25.72,0,0,1-23.38-25.62v-28.14a2.34,2.34,0,0,1,2.34-2.34h9.35a2.33,2.33,0,0,1,2.34,2.34A2.33,2.33,0,0,1,71.76-547h-7v25.81a21,21,0,0,0,21,21,21,21,0,0,0,21-21V-547h-7a2.33,2.33,0,0,1-2.34-2.33,2.34,2.34,0,0,1,2.34-2.34h9.31a2.34,2.34,0,0,1,2.34,2.34v28.14A25.72,25.72,0,0,1,88.13-495.53ZM148.92-526a7,7,0,0,0-7-7,7,7,0,0,0-6.5,4.32,7,7,0,0,0,1.51,7.65,7,7,0,0,0,7.66,1.52A7,7,0,0,0,148.92-526Z"/></clipPath></defs><title>Stroke_Home 88px copy 12 copia 5</title><rect class="cls-1" x="-1921.26" y="-2486.06" width="2795.12" height="3953.92"/><rect class="cls-1" x="-1921.26" y="-3063.06" width="2795.12" height="3953.92"/><g class="cls-6"><rect class="cls-3" x="-1713.89" y="-3248.36" width="6048.33" height="6039.55"/></g><path class="cls-3" d="M-568.66,793.63h70.29v5.85a8.73,8.73,0,0,1-8.79,8.79h-52.72a8.73,8.73,0,0,1-8.78-8.79Zm0-90.8h70.29V790.7h-70.29Zm8.78-14.65h52.72a8.74,8.74,0,0,1,8.79,8.79v2.93h-70.29V697A8.74,8.74,0,0,1-559.88,688.18Zm0-2.93A11.72,11.72,0,0,0-571.59,697V799.48a11.72,11.72,0,0,0,11.71,11.72h52.72a11.72,11.72,0,0,0,11.72-11.72V697a11.72,11.72,0,0,0-11.72-11.72Z"/><rect class="cls-1" x="-1921.26" y="-2765.06" width="2795.12" height="3953.92"/><rect class="cls-1" x="-2560.37" y="-2486.06" width="2795.12" height="3953.92"/><rect class="cls-1" x="-2560.37" y="-3063.06" width="2795.12" height="3953.92"/><rect class="cls-1" x="-2560.37" y="-2765.06" width="2795.12" height="3953.92"/><g class="cls-8"><rect class="cls-2" x="-837.03" y="143.33" width="2875.44" height="4067.55"/></g><path class="cls-2" d="M-515,1334.86a2,2,0,0,1,.48,2.78,2,2,0,0,1-2.78.48,28.16,28.16,0,0,0-32.45,0,2,2,0,0,1-2.78-.48,2,2,0,0,1,.48-2.78A32.12,32.12,0,0,1-515,1334.86Zm12.18-13.64a2,2,0,0,1,.48,2.78,2,2,0,0,1-2.78.48,49.26,49.26,0,0,0-56.81,0,2,2,0,0,1-2.78-.48,2,2,0,0,1,.48-2.78A53.22,53.22,0,0,1-502.81,1321.22Zm12.38-14a2,2,0,0,1,.48,2.78,2,2,0,0,1-2.79.48,70.61,70.61,0,0,0-81.56,0,2,2,0,0,1-2.78-.48,2,2,0,0,1,.48-2.78A74.59,74.59,0,0,1-490.43,1307.22Zm-43.09,46.18a4,4,0,0,0,4-4,4,4,0,0,0-4-4,4,4,0,0,0-4,4A4,4,0,0,0-533.52,1353.4Zm0,4a8,8,0,0,1-8-8,8,8,0,0,1,8-8,8,8,0,0,1,8,8A8,8,0,0,1-533.52,1357.39Z"/><path class="cls-10" d="M70.32,92H138l-6.21-16c-1.31-3.92-3.27-7.52-7.2-7.52H83.73c-4.25,0-5.88,3.6-7.52,7.52Zm77.19.32a12,12,0,0,1,9.81,11.78v30.09H51V104.13a12,12,0,0,1,9.81-11.78l7.85-21.58c2-4.91,4.25-9.48,9.48-9.48h51.68c5.23,0,7.84,4.57,9.81,9.48ZM138,106.42a8.83,8.83,0,1,0,8.83,8.83A8.79,8.79,0,0,0,138,106.42Zm-68,0a8.84,8.84,0,1,1-8.51,8.83A8.79,8.79,0,0,1,70,106.42Z"/><path class="cls-10" d="M59.2,131H79.48v9.48A9.49,9.49,0,0,1,70,149.91H68.69a9.5,9.5,0,0,1-9.49-9.48Z"/><path class="cls-10" d="M149.14,131h-20.6v9.48a9.49,9.49,0,0,0,9.48,9.48h1.64a9.49,9.49,0,0,0,9.48-9.48Z"/><circle class="cls-11" cx="70.32" cy="116.02" r="8.83"/></svg>