<svg id="Icons" xmlns="http://www.w3.org/2000/svg" xmlns:xlink="http://www.w3.org/1999/xlink" viewBox="0 0 211.2 211.2"><defs><style>.cls-1,.cls-2{fill:none;}.cls-2{stroke:#000;stroke-miterlimit:10;stroke-width:0.25px;}.cls-3{clip-path:url(#clip-path);}.cls-4{clip-path:url(#clip-path-2);}.cls-5{clip-path:url(#clip-path-3);}.cls-6{clip-path:url(#clip-path-4);}.cls-7{clip-path:url(#clip-path-5);}.cls-8{fill:#eb0000;}</style><clipPath id="clip-path"><path class="cls-1" d="M-525.17,112.12l4.26-4.4a9.89,9.89,0,0,1,14-.24l9.59,9.27a9.91,9.91,0,0,1,.24,14l-6.17,6.34a17.79,17.79,0,0,1-25.18.32l-.18-.17-39.69-39.77a17.84,17.84,0,0,1,0-25.21l6.11-6.09a9.89,9.89,0,0,1,14,0l9.51,9.5a9.9,9.9,0,0,1,.06,14l-4.47,4.54Zm-22.12-16.54a2,2,0,0,1,0-2.79l5.85-6a5.94,5.94,0,0,0,0-8.36L-551,69a5.94,5.94,0,0,0-8.4,0l-6.1,6.1a13.86,13.86,0,0,0,0,19.6l39.69,39.77a13.87,13.87,0,0,0,19.72-.12L-500,128a6,6,0,0,0-.12-8.42l-9.59-9.27a5.94,5.94,0,0,0-8.4.14l-5.66,5.85a2,2,0,0,1-2.82,0Z"/></clipPath><clipPath id="clip-path-2"><path class="cls-1" d="M-515.92,448.5a2.21,2.21,0,0,1,2.2-2.2,2.2,2.2,0,0,1,2.2,2.2c0,13.25-9.74,23.84-22,23.84a2.21,2.21,0,0,1-2.2-2.2,2.2,2.2,0,0,1,2.2-2.2C-523.78,467.94-515.92,459.4-515.92,448.5Zm17.6-5.26v0c0,21.67-15.6,38.94-35.2,38.94s-35.2-17.27-35.2-38.94v0c0-5.46,1.76-11.82,5-18.93a127.4,127.4,0,0,1,9.12-16.42c3-4.71,6.28-9.26,9.54-13.49,1.13-1.48,2.19-2.81,3.14-4,.57-.7,1-1.2,1.18-1.42a9.38,9.38,0,0,1,7.28-3.52,9.36,9.36,0,0,1,7.24,3.48c.22.26.64.76,1.21,1.46.95,1.17,2,2.5,3.14,4,3.25,4.23,6.5,8.78,9.53,13.49a127.26,127.26,0,0,1,9.11,16.42C-500.07,431.42-498.32,437.78-498.32,443.24Zm-4.4,0c0-4.74-1.59-10.53-4.56-17.12a123.36,123.36,0,0,0-8.79-15.84c-3-4.6-6.15-9.06-9.33-13.19-1.11-1.45-2.14-2.75-3.06-3.89l-1.18-1.43a5,5,0,0,0-3.86-1.89,5,5,0,0,0-3.9,1.93l-1.15,1.39c-.92,1.14-2,2.44-3.07,3.89-3.18,4.13-6.36,8.59-9.33,13.19a125.41,125.41,0,0,0-8.8,15.84c-3,6.59-4.57,12.39-4.57,17.12v0h0c0,19.33,13.74,34.54,30.8,34.54s30.8-15.21,30.8-34.54v0Z"/></clipPath><clipPath id="clip-path-3"><path class="cls-2" d="M-568.66,1103.85h70.29v5.86a8.73,8.73,0,0,1-8.79,8.78h-52.72a8.73,8.73,0,0,1-8.78-8.78Zm0-90.8h70.29v87.87h-70.29Zm8.78-14.64h52.72a8.73,8.73,0,0,1,8.79,8.78v2.93h-70.29v-2.93A8.73,8.73,0,0,1-559.88,998.41Zm0-2.93a11.72,11.72,0,0,0-11.71,11.71v102.52a11.72,11.72,0,0,0,11.71,11.71h52.72a11.72,11.72,0,0,0,11.72-11.71V1007.19a11.72,11.72,0,0,0-11.72-11.71Z"/></clipPath><clipPath id="clip-path-4"><path class="cls-1" d="M-508.34-536.26a3,3,0,0,1,5.84-.86l1.3,3.5c.55,1.48,1,2.74,1.44,4a108.82,108.82,0,0,1,3.35,11.19c1.56,6.71,1.88,12.34.62,16.89-4.21,15.19-16.44,24.79-36.79,24.79-21.36,0-34.77-9.9-38.52-26.51-3-13.5,1.78-27.18,9.87-39a3,3,0,0,1,5.47,2c-.62,5.43.75,9.67,3.37,12.92,1.67-23.67,14.83-35.79,31.59-39.91a3.55,3.55,0,0,1,3.91,5.25c-5.71,9.56-2.11,35.45,4.15,40.5C-510.18-523.66-508.72-529.34-508.34-536.26Zm-58.34,32c3.26,14.48,14.78,23,34.1,23,18.28,0,28.75-8.21,32.42-21.46,1-3.69.74-8.63-.66-14.66A102.66,102.66,0,0,0-504-528.13c-.16-.45-.32-.9-.48-1.37-.93,5.42-2.73,9.63-5.82,11.92a4.07,4.07,0,0,1-4.77,0c-8-5.67-12.15-32-6.7-44.68-14.26,4.23-25,15.21-26.14,36.4a4,4,0,0,1-7,2.49,20.2,20.2,0,0,1-5.35-11.9C-566-525.47-569-514.63-566.68-504.27Z"/></clipPath><clipPath id="clip-path-5"><path class="cls-1" d="M88.13-185.31v6.45a26.15,26.15,0,0,0,25.75,26.26,25.24,25.24,0,0,0,18.1-7.28,25.54,25.54,0,0,0,7.59-18.05v-26.34a11.68,11.68,0,0,1-5.93-3.19,11.69,11.69,0,0,1-2.53-12.76,11.68,11.68,0,0,1,10.83-7.19,11.64,11.64,0,0,1,11.65,11.64,11.69,11.69,0,0,1-7.19,10.84,12.19,12.19,0,0,1-2.16.66v26.35a30.18,30.18,0,0,1-9,21.37,29.93,29.93,0,0,1-21.44,8.63,30.84,30.84,0,0,1-30.37-30.94v-6.45a25.72,25.72,0,0,1-23.38-25.61v-28.15a2.34,2.34,0,0,1,2.34-2.34h9.35a2.34,2.34,0,0,1,2.34,2.34,2.34,2.34,0,0,1-2.34,2.34h-7v25.81a21,21,0,0,0,21,21,21,21,0,0,0,21-21v-25.81h-7a2.34,2.34,0,0,1-2.34-2.34,2.34,2.34,0,0,1,2.34-2.34h9.31a2.34,2.34,0,0,1,2.34,2.34v28.15A25.72,25.72,0,0,1,88.13-185.31Zm60.79-30.44a7,7,0,0,0-7-7,7,7,0,0,0-6.5,4.32,7,7,0,0,0,1.51,7.65,7,7,0,0,0,7.66,1.52A7,7,0,0,0,148.92-215.75Z"/></clipPath></defs><title>Stroke_Home 88px copy 12 copia 4</title><rect class="cls-1" x="-1921.26" y="-2175.84" width="2795.12" height="3953.92"/><rect class="cls-1" x="-1921.26" y="-2752.84" width="2795.12" height="3953.92"/><g class="cls-5"><rect class="cls-2" x="-1713.89" y="-2938.14" width="6048.33" height="6039.55"/></g><path class="cls-2" d="M-568.66,1103.85h70.29v5.86a8.73,8.73,0,0,1-8.79,8.78h-52.72a8.73,8.73,0,0,1-8.78-8.78Zm0-90.8h70.29v87.87h-70.29Zm8.78-14.64h52.72a8.73,8.73,0,0,1,8.79,8.78v2.93h-70.29v-2.93A8.73,8.73,0,0,1-559.88,998.41Zm0-2.93a11.72,11.72,0,0,0-11.71,11.71v102.52a11.72,11.72,0,0,0,11.71,11.71h52.72a11.72,11.72,0,0,0,11.72-11.71V1007.19a11.72,11.72,0,0,0-11.72-11.71Z"/><rect class="cls-1" x="-1921.26" y="-2454.84" width="2795.12" height="3953.92"/><rect class="cls-1" x="-2560.37" y="-2175.84" width="2795.12" height="3953.92"/><rect class="cls-1" x="-2560.37" y="-2752.84" width="2795.12" height="3953.92"/><rect class="cls-1" x="-2560.37" y="-2454.84" width="2795.12" height="3953.92"/><path class="cls-8" d="M150.62,101.31,112.19,62.87a3,3,0,0,0-4.24,0L88.53,82.29V77.86H80v13L69.51,101.31a3,3,0,0,0,0,4.24l0,0a3,3,0,0,0,4.24,0L108,71.45a3,3,0,0,1,4.24,0l34.15,34.14a3,3,0,0,0,4.24,0l0,0A3,3,0,0,0,150.62,101.31Z"/><polygon class="cls-8" points="79.97 104.85 79.97 143.73 99.5 143.73 99.5 119.91 120.64 119.91 120.64 143.73 140.17 143.73 140.17 105.42 109.78 75.04 79.97 104.85"/></svg>